<?xml version="1.0" standalone="no"?>
<!DOCTYPE svg PUBLIC "-//W3C//DTD SVG 20010904//EN"
 "http://www.w3.org/TR/2001/REC-SVG-20010904/DTD/svg10.dtd">
<svg version="1.0" xmlns="http://www.w3.org/2000/svg"
 width="1024.000000pt" height="1024.000000pt" viewBox="0 0 1024.000000 1024.000000"
 preserveAspectRatio="xMidYMid meet">

<g transform="translate(0.000000,1024.000000) scale(0.100000,-0.100000)"
fill="#000000" stroke="none">
<path d="M5873 9215 c-3 -9 -4 -17 -2 -19 8 -6 177 -84 198 -91 11 -3 21 -11
21 -17 0 -6 -9 -8 -22 -4 -46 14 -176 36 -298 51 -235 28 -508 17 -754 -31
-148 -29 -219 -28 -284 5 -51 26 -72 27 -72 2 0 -15 15 -24 64 -41 99 -33 106
-53 40 -131 -36 -43 -39 -62 -11 -67 11 -2 31 20 61 67 58 90 87 105 253 130
274 43 587 45 812 6 85 -15 114 -25 70 -25 -44 0 -69 -12 -69 -32 0 -18 5 -19
83 -12 64 5 107 2 198 -16 91 -17 122 -19 138 -11 45 25 37 31 -267 188 -129
66 -149 72 -159 48z"/>
<path d="M4103 9122 c-85 -29 -124 -56 -149 -105 -20 -37 -9 -66 31 -83 27
-11 34 -20 37 -49 l4 -35 -79 -26 c-76 -25 -79 -25 -92 -8 -20 26 -18 41 5 64
26 26 25 53 -4 87 -21 24 -32 28 -73 27 -50 0 -183 -41 -183 -56 0 -4 -7 -8
-15 -8 -23 0 -65 -52 -65 -81 0 -36 35 -77 68 -81 22 -2 28 -9 30 -34 3 -30 1
-32 -70 -58 -40 -14 -78 -26 -85 -26 -20 0 -26 57 -9 82 23 32 20 61 -9 92
-33 36 -102 36 -193 0 -120 -49 -162 -84 -162 -138 0 -27 38 -63 76 -72 13 -3
27 -18 33 -35 9 -26 8 -31 -12 -39 -12 -5 -60 -25 -107 -43 -81 -33 -85 -36
-88 -68 -5 -49 15 -107 39 -114 13 -4 61 7 126 30 58 21 108 34 112 29 5 -5
32 -67 62 -139 44 -107 63 -139 104 -182 76 -78 142 -83 178 -13 25 49 17 107
-39 280 -25 78 -44 146 -42 152 3 9 60 34 119 53 13 4 24 -13 49 -77 45 -116
115 -242 156 -283 47 -48 100 -49 138 -4 22 25 26 41 26 90 0 65 -30 217 -61
306 -10 31 -19 62 -19 69 0 11 95 54 118 54 4 0 17 -35 30 -78 13 -42 43 -117
67 -167 85 -176 173 -218 229 -110 36 69 19 221 -50 446 -3 12 8 21 43 34 127
47 143 56 143 83 0 39 -39 112 -59 112 -10 0 -51 -11 -91 -25 -40 -14 -77 -25
-81 -25 -5 0 -16 14 -24 31 -15 28 -15 32 -1 48 9 10 16 34 16 53 0 31 -5 38
-34 52 -44 21 -46 21 -143 -12z m132 -32 c20 -32 -68 -89 -174 -111 -102 -21
-89 34 20 89 64 32 141 43 154 22z m-15 -130 c0 -5 -2 -10 -4 -10 -3 0 -8 5
-11 10 -3 6 -1 10 4 10 6 0 11 -4 11 -10z m-389 -26 c11 -14 9 -19 -11 -35
-29 -22 -108 -60 -163 -79 -51 -16 -87 -7 -87 24 0 30 38 60 95 76 6 2 26 9
45 16 50 18 105 17 121 -2z m633 -10 c4 -15 5 -29 2 -31 -6 -7 -625 -246 -951
-368 -292 -109 -464 -169 -469 -164 -2 2 -7 18 -10 35 l-7 31 153 60 c319 126
1231 460 1259 462 10 1 19 -10 23 -25z m-334 6 c0 -5 -4 -10 -9 -10 -6 0 -13
5 -16 10 -3 6 1 10 9 10 9 0 16 -4 16 -10z m-13 -30 c9 0 14 -3 10 -6 -11 -12
-57 6 -57 22 0 14 2 14 16 0 8 -9 23 -16 31 -16z m-307 -100 c9 -17 7 -22 -17
-31 -15 -5 -48 -17 -71 -26 -38 -14 -45 -14 -53 -2 -14 22 -12 25 49 52 71 31
79 32 92 7z m-409 0 c20 -11 24 -27 11 -48 -10 -15 -194 -92 -221 -92 -51 0
-67 32 -33 63 31 28 158 79 215 86 5 1 17 -4 28 -9z m-6 -151 c4 -11 5 -22 3
-23 -8 -6 -126 -46 -137 -46 -25 0 -10 38 22 52 17 8 43 20 57 26 37 16 48 14
55 -9z m523 -124 c53 -186 67 -310 36 -335 -42 -36 -120 60 -195 239 -47 114
-47 117 36 151 39 15 77 27 85 26 10 -1 23 -30 38 -81z m-399 -202 c53 -162
65 -236 41 -266 -16 -20 -20 -20 -45 -7 -46 24 -86 86 -141 218 -29 70 -51
128 -50 129 4 4 139 52 147 53 4 0 26 -57 48 -127z"/>
<path d="M6640 8942 c-52 -17 -89 -31 -110 -42 -15 -7 -60 -20 -250 -75 -52
-15 -211 -65 -352 -112 -209 -68 -258 -87 -258 -102 0 -9 28 -40 63 -68 34
-28 132 -110 217 -182 85 -72 160 -131 167 -131 7 0 54 50 105 111 51 61 171
204 266 318 95 113 184 217 197 231 26 26 34 71 13 69 -7 -1 -33 -8 -58 -17z
m-203 -279 c-100 -120 -196 -233 -213 -252 l-31 -34 -31 21 c-41 30 -55 28
-86 -13 -15 -19 -32 -35 -37 -35 -13 0 -299 240 -299 251 0 4 78 33 173 63
422 135 522 166 530 166 5 0 23 6 40 14 46 20 121 43 129 39 4 -2 -75 -101
-175 -220z m-287 -308 c12 -14 8 -25 -19 -56 -11 -13 -19 -15 -33 -8 -24 13
-23 28 4 56 25 27 31 28 48 8z"/>
<path d="M5265 8900 c-62 -26 -91 -44 -93 -57 -3 -20 147 -153 172 -153 24 0
64 176 52 225 -8 33 -23 31 -131 -15z m80 -72 c-4 -29 -11 -57 -15 -62 -10
-10 -92 53 -87 67 3 9 81 45 100 46 5 1 6 -23 2 -51z"/>
<path d="M6893 8763 c-34 -11 -43 -20 -43 -38 0 -27 -19 -37 -58 -29 -23 5
-32 -1 -64 -43 -32 -42 -35 -50 -22 -64 19 -21 18 -29 -6 -29 -24 0 -40 -35
-40 -89 0 -39 20 -68 39 -57 16 10 24 -35 11 -59 -11 -20 -9 -28 8 -52 11 -15
29 -36 41 -47 18 -17 23 -17 43 -4 33 20 59 12 52 -16 -7 -30 11 -44 77 -56
50 -10 55 -9 75 14 26 27 93 44 104 25 10 -16 48 -5 85 25 27 22 29 26 16 49
-16 31 -8 47 24 47 14 0 29 8 35 19 15 29 12 97 -5 111 -20 17 -19 70 1 85 15
10 12 17 -21 64 -35 48 -40 51 -68 45 -28 -6 -29 -5 -25 20 7 34 -10 52 -64
68 -38 11 -42 11 -56 -10 -19 -28 -38 -28 -53 1 -12 21 -29 37 -39 36 -3 0
-24 -7 -47 -16z m112 -83 c43 0 55 3 55 16 0 28 33 10 42 -22 10 -40 51 -78
78 -71 11 3 20 2 21 -1 0 -4 1 -40 3 -80 2 -55 7 -76 20 -85 21 -15 12 -47
-14 -47 -25 0 -64 -64 -56 -94 5 -22 3 -23 -42 -23 -60 0 -123 -17 -139 -39
-14 -19 -63 -12 -63 10 0 33 -37 60 -83 62 -59 2 -67 8 -61 47 6 37 -18 102
-41 110 -23 9 -19 47 4 47 27 0 34 15 34 69 0 55 9 70 40 64 30 -6 97 34 97
57 0 28 23 30 38 4 11 -21 20 -24 67 -24z"/>
<path d="M6905 8636 c-37 -17 -80 -62 -94 -99 -19 -48 -13 -128 12 -171 67
-118 259 -100 326 31 27 53 3 161 -46 205 -49 45 -139 60 -198 34z m149 -54
c42 -24 68 -78 62 -126 -9 -79 -76 -130 -159 -123 -110 9 -152 135 -76 231 36
46 109 54 173 18z"/>
<path d="M4689 8697 c-36 -24 -50 -66 -27 -84 7 -6 35 -16 63 -22 77 -19 99
-50 51 -72 -18 -9 -33 -6 -70 11 -55 25 -79 20 -96 -19 -9 -23 -9 -34 3 -57
53 -101 187 -134 301 -74 l56 30 153 -40 c83 -23 163 -45 177 -51 14 -6 45
-38 70 -72 56 -76 95 -100 164 -101 63 0 106 23 106 58 0 23 -9 32 -93 103
-49 41 -6 67 73 44 36 -10 56 -3 69 25 30 67 -99 166 -193 149 -20 -4 -56 -20
-81 -36 -25 -16 -58 -29 -73 -29 -15 0 -94 19 -176 42 -132 37 -153 46 -180
76 -17 19 -49 53 -71 76 -65 67 -163 86 -226 43z m160 -47 c21 -10 55 -42 74
-69 43 -60 64 -74 142 -97 33 -9 95 -28 138 -40 111 -34 180 -32 236 6 50 34
95 38 148 14 31 -15 71 -59 62 -68 -2 -2 -28 1 -56 7 -48 10 -56 9 -80 -10
-43 -31 -43 -75 -1 -116 18 -18 44 -39 57 -48 31 -20 20 -39 -23 -39 -61 0
-91 18 -139 85 -25 35 -59 70 -74 78 -39 20 -326 97 -360 97 -15 0 -55 -14
-88 -31 -50 -25 -67 -30 -105 -25 -52 7 -115 46 -125 76 -10 31 2 36 34 17 68
-40 151 -8 151 59 0 41 -43 79 -100 89 -22 4 -40 10 -40 15 0 26 99 26 149 0z"/>
<path d="M7556 8418 c-14 -63 -26 -170 -20 -179 7 -12 33 -7 132 28 39 14 72
31 72 37 0 13 -81 94 -120 120 -34 23 -59 20 -64 -6z"/>
<path d="M2580 8342 c0 -10 18 -95 40 -188 22 -93 40 -175 40 -182 0 -21 -44
14 -153 122 -142 140 -146 136 -72 -90 31 -92 54 -171 53 -176 -4 -11 -149 88
-212 143 -30 26 -52 39 -62 35 -20 -8 -20 -5 49 -183 30 -79 52 -143 49 -143
-4 0 -61 47 -127 105 -66 58 -126 105 -132 105 -7 0 -13 -9 -13 -19 0 -20 109
-261 155 -343 15 -27 24 -48 20 -48 -19 0 -133 74 -243 157 -137 105 -139 87
-13 -124 55 -93 106 -175 113 -183 7 -8 13 -17 13 -20 1 -3 7 -16 14 -28 27
-49 13 -43 -235 101 -64 37 -121 67 -125 67 -23 0 -3 -51 55 -139 35 -53 73
-115 85 -138 12 -24 39 -71 61 -104 22 -34 40 -66 40 -70 0 -8 -104 35 -260
106 -120 56 -118 30 14 -160 92 -133 158 -215 173 -215 30 0 18 27 -59 129
-126 167 -150 202 -145 208 3 3 45 -14 94 -37 293 -141 307 -139 203 19 -33
50 -77 122 -99 160 -21 38 -50 86 -64 107 -15 21 -25 40 -22 42 4 4 140 -70
272 -148 65 -38 103 -46 103 -22 0 4 -16 32 -35 62 -19 30 -35 57 -35 61 0 4
-31 62 -70 130 -38 67 -70 126 -70 131 0 6 17 -3 38 -20 43 -34 170 -110 225
-135 31 -14 39 -15 43 -3 3 7 -34 91 -81 186 -47 95 -84 174 -82 177 3 2 58
-43 123 -101 66 -58 125 -106 132 -106 22 0 13 40 -43 183 -31 77 -54 144 -53
149 2 5 25 -7 52 -27 64 -50 187 -125 203 -125 21 0 16 26 -32 175 -25 77 -45
144 -45 150 0 5 30 -20 68 -56 124 -121 192 -165 192 -124 0 8 -16 80 -35 161
-19 80 -35 153 -35 161 0 9 34 -31 76 -88 42 -57 81 -104 87 -104 29 0 3 51
-97 188 -102 139 -136 171 -136 129z"/>
<path d="M6435 8210 c-20 -39 -19 -60 3 -60 20 0 52 56 45 78 -8 22 -32 13
-48 -18z"/>
<path d="M6562 8223 c-5 -10 -28 -68 -52 -130 -40 -106 -46 -150 -17 -141 15
5 116 258 110 275 -7 19 -31 16 -41 -4z"/>
<path d="M7949 8113 c-6 -16 -13 -65 -16 -110 -5 -77 -4 -83 13 -83 27 1 162
34 170 42 4 4 -1 20 -11 35 -24 37 -126 143 -137 143 -5 0 -13 -12 -19 -27z
m101 -119 c0 -12 -68 -30 -77 -20 -3 3 -2 26 2 52 l7 46 34 -33 c19 -18 34
-38 34 -45z"/>
<path d="M6625 8112 c-14 -9 -38 -90 -30 -102 14 -22 34 -7 49 37 13 38 14 50
4 60 -7 7 -18 9 -23 5z"/>
<path d="M4898 8098 c-4 -12 37 -93 51 -102 4 -3 13 -1 20 3 10 7 9 15 -4 42
-30 59 -59 83 -67 57z"/>
<path d="M5278 7976 c-174 -131 -301 -241 -404 -348 l-81 -84 -109 -11 c-107
-12 -264 -53 -294 -78 -8 -7 -30 -17 -48 -23 -80 -27 -289 -195 -280 -224 3
-8 36 -15 91 -20 47 -3 112 -13 144 -22 58 -16 185 -77 180 -86 -105 -207
-117 -252 -83 -319 45 -87 178 -188 302 -230 l70 -24 40 19 c35 17 101 92 201
229 l22 30 47 -45 c42 -41 132 -167 176 -249 20 -36 39 -33 58 7 53 114 82
275 76 418 -5 105 -19 163 -68 283 l-31 74 18 51 c85 250 128 446 150 684 6
71 6 72 -17 71 -13 0 -82 -44 -160 -103z m-552 -517 c-14 -17 -26 -34 -26 -38
0 -5 -10 -19 -22 -33 -28 -30 -68 -85 -68 -92 0 -3 -22 -39 -50 -80 -27 -41
-50 -79 -50 -85 0 -14 -13 -14 -26 -1 -13 13 -150 70 -209 86 -27 8 -67 14
-87 14 -21 0 -38 4 -38 10 0 14 82 79 166 131 102 63 276 116 387 118 l49 1
-26 -31z m154 -81 c-5 -55 -2 -58 45 -58 41 0 45 -2 45 -24 l0 -24 -37 19
c-45 23 -117 25 -166 4 -45 -19 -43 -19 -43 5 0 16 7 20 38 20 38 0 38 0 38
40 l0 40 41 0 c36 0 40 -3 39 -22z m326 -64 c19 -9 34 -18 34 -21 0 -4 -20
-44 -25 -51 -1 -1 -15 5 -32 13 -47 23 -89 11 -112 -33 -25 -48 12 -114 64
-114 14 0 25 -4 25 -9 0 -5 -4 -9 -10 -9 -5 0 -10 -6 -10 -13 0 -29 -22 -37
-59 -21 -43 18 -50 28 -46 70 1 20 -2 31 -8 27 -5 -3 -7 0 -5 8 3 8 -1 27 -9
43 -19 38 -4 68 52 102 47 28 93 31 141 8z m-543 -88 c-10 -12 -18 -22 -19
-24 -1 -1 -8 0 -17 4 -14 5 -14 9 5 35 17 22 24 26 35 17 11 -9 11 -14 -4 -32z
m278 -4 c78 -87 52 -213 -59 -283 -144 -91 -282 62 -203 225 32 64 99 99 180
93 46 -3 59 -9 82 -35z m359 -84 c58 -191 54 -404 -12 -571 l-11 -28 -25 43
c-37 62 -125 178 -165 217 l-35 33 37 57 c44 64 73 120 130 244 23 49 45 86
50 83 5 -3 19 -39 31 -78z m-690 -65 c0 -30 -3 -33 -28 -33 -16 0 -36 6 -45
13 -15 11 -16 14 -3 33 10 13 26 21 45 21 28 0 31 -3 31 -34z m364 -193 c0
-27 -2 -50 -6 -50 -5 0 -8 26 -8 57 0 69 12 64 14 -7z m-332 22 c-7 -54 43
-79 93 -46 14 9 25 12 25 8 0 -12 -49 -34 -76 -34 -36 0 -71 69 -47 93 10 10
10 9 5 -21z m391 1 c-5 -12 -7 -12 -14 -1 -13 20 -11 28 5 22 8 -3 12 -12 9
-21z m-533 -20 l14 -38 15 37 c9 21 19 38 23 38 4 0 -2 -21 -13 -47 -11 -25
-18 -52 -15 -60 4 -8 -2 -13 -17 -12 -12 0 -16 3 -9 6 17 7 15 28 -8 73 -11
22 -17 40 -12 40 4 0 14 -17 22 -37z m-51 -29 c-7 -13 -16 -24 -21 -24 -5 0
-3 9 5 21 8 11 13 30 10 42 -4 20 -4 21 7 3 10 -14 9 -24 -1 -42z m471 11 c0
-19 -4 -35 -9 -35 -5 0 -8 8 -6 18 2 9 4 25 4 35 2 32 11 17 11 -18z m-97 -25
c13 0 29 6 37 13 12 10 12 9 1 -5 -22 -30 -82 -17 -81 17 0 5 5 2 11 -7 5 -10
20 -18 32 -18z"/>
<path d="M4785 8020 c-8 -13 75 -122 89 -117 23 8 15 34 -25 80 -41 48 -53 55
-64 37z"/>
<path d="M5860 7980 c0 -33 41 -188 55 -207 11 -15 21 -10 99 58 47 41 86 81
86 90 0 18 -30 34 -115 60 -82 26 -125 25 -125 -1z m123 -46 c26 -9 47 -19 47
-23 0 -4 -20 -24 -45 -44 l-44 -37 -11 42 c-6 24 -13 51 -16 61 -7 21 8 22 69
1z"/>
<path d="M6985 7963 c-116 -13 -117 -14 -164 -62 -42 -42 -54 -49 -126 -64
-43 -10 -88 -26 -99 -35 -29 -26 -46 -76 -46 -139 0 -101 51 -169 154 -204 56
-20 54 -14 40 -120 -5 -42 -3 -48 38 -98 23 -29 51 -65 60 -80 10 -14 38 -45
64 -67 l47 -41 -27 -36 c-38 -49 -53 -106 -71 -263 -18 -151 -40 -226 -90
-301 -37 -56 -44 -83 -21 -83 30 0 108 127 130 213 8 32 20 112 26 177 10 125
36 214 70 245 18 17 24 14 152 -84 73 -56 172 -129 220 -162 83 -58 99 -79 59
-79 -20 0 -119 58 -174 101 -37 30 -57 31 -57 4 0 -18 72 -73 144 -111 105
-54 44 -57 -70 -3 -72 34 -87 36 -82 12 2 -11 32 -33 72 -53 65 -32 67 -35 41
-41 -15 -5 -43 -3 -63 4 -55 18 -84 77 -91 186 -5 67 -9 86 -21 86 -12 0 -15
-16 -14 -91 0 -74 5 -99 23 -134 12 -23 21 -43 19 -44 -74 -43 -308 -249 -308
-271 0 -34 27 -21 100 49 94 90 238 199 254 192 6 -3 28 -10 49 -17 64 -21
144 14 224 97 34 36 86 47 96 20 3 -7 28 -16 55 -20 54 -7 116 13 161 53 19
16 32 20 57 15 52 -10 98 25 131 96 21 46 33 61 54 65 24 6 83 55 65 55 -5 0
-4 6 1 13 19 24 34 108 27 158 -4 33 -3 49 4 49 26 0 39 56 41 166 1 105 -1
115 -29 171 -34 69 -133 181 -188 214 -20 13 -59 42 -85 66 -28 25 -63 45 -83
49 -20 4 -48 17 -62 29 -15 12 -52 30 -82 38 -30 9 -80 25 -110 36 -30 11 -74
20 -96 21 -23 0 -79 7 -125 16 -69 13 -94 14 -140 4 -42 -9 -62 -9 -77 -1 -11
6 -27 10 -34 10 -7 -1 -26 -4 -43 -6z m98 -63 c35 -30 47 -30 47 1 0 23 38 34
88 25 20 -4 76 -11 124 -15 53 -5 97 -14 112 -25 24 -15 25 -18 12 -39 -7 -12
-17 -38 -20 -58 l-6 -36 42 -6 c23 -3 45 -4 47 -1 2 2 -5 15 -18 27 -39 43 -5
72 81 70 21 0 45 -6 54 -14 14 -11 13 -15 -8 -31 -13 -9 -33 -18 -46 -18 -33
0 -40 -29 -13 -52 31 -24 40 -23 51 6 11 30 64 43 113 30 26 -8 38 -21 64 -74
38 -78 42 -138 13 -195 -24 -46 -20 -66 12 -62 20 2 23 -3 23 -33 0 -24 5 -36
17 -38 22 -4 33 62 19 114 -15 56 -16 173 -3 186 26 26 222 -214 222 -271 0
-33 -19 -63 -36 -57 -8 3 -31 -1 -51 -9 -35 -15 -35 -15 -28 8 13 41 22 142
14 175 -9 41 -14 46 -35 38 -16 -6 -16 -18 1 -60 7 -15 5 -17 -13 -12 -28 9
-35 -6 -17 -40 20 -39 19 -58 -7 -113 -15 -35 -36 -58 -75 -84 -30 -21 -58
-35 -62 -32 -5 2 -11 18 -14 33 -8 37 -103 120 -119 104 -17 -17 -3 -39 42
-67 23 -14 40 -31 38 -38 -2 -7 -24 -22 -48 -34 -46 -24 -86 -30 -75 -13 4 6
4 18 1 26 -5 12 -12 10 -42 -13 -29 -21 -47 -27 -88 -28 l-51 0 3 58 c3 51 1
58 -14 55 -10 -2 -21 -17 -26 -36 -5 -18 -16 -36 -25 -39 -19 -8 -123 42 -123
59 0 7 15 20 32 28 44 21 57 45 36 66 -15 15 -17 14 -32 -8 -17 -26 -80 -53
-111 -47 -29 6 -29 28 -1 39 24 9 34 29 21 42 -3 3 -32 -3 -64 -12 -46 -15
-67 -16 -101 -9 -51 12 -82 4 -78 -19 2 -11 15 -18 36 -20 34 -4 35 -5 26 -49
-4 -18 -17 -36 -35 -47 -16 -9 -29 -24 -29 -33 0 -12 6 -14 33 -8 17 5 44 9
58 9 25 1 27 4 25 46 -1 61 18 62 114 7 68 -39 75 -46 81 -81 7 -41 31 -72 48
-62 6 4 8 20 4 37 l-6 30 39 -16 c53 -22 74 -43 74 -76 0 -33 9 -59 21 -59 5
0 9 8 10 18 0 10 3 12 6 5 8 -21 23 -14 20 9 -2 20 4 23 43 28 25 3 56 13 70
23 33 23 70 22 70 -1 0 -26 -20 -42 -51 -42 -36 0 -46 -17 -23 -36 18 -13 18
-15 -9 -39 -29 -26 -31 -55 -3 -55 16 0 66 55 66 74 0 7 14 22 30 34 22 16 30
31 30 52 0 40 27 56 124 76 27 5 96 52 103 69 6 18 44 20 61 3 8 -8 14 -5 22
16 8 23 15 27 42 24 31 -3 33 -6 36 -43 4 -60 -9 -72 -45 -45 -25 18 -38 21
-77 15 -44 -7 -47 -9 -41 -32 5 -21 3 -24 -14 -18 -24 7 -37 -11 -21 -30 19
-23 50 -18 78 15 15 17 31 30 37 30 6 0 24 -19 39 -42 l28 -43 -20 -35 c-10
-19 -24 -36 -30 -38 -5 -1 -26 11 -45 27 -37 33 -73 38 -184 25 -42 -5 -53
-11 -53 -25 0 -16 8 -17 90 -12 88 6 90 5 123 -23 19 -16 42 -34 52 -39 26
-15 6 -47 -46 -77 -28 -16 -46 -35 -56 -60 -16 -40 -68 -91 -87 -85 -6 2 -11
21 -12 43 -1 21 -5 53 -9 71 -6 29 -5 33 20 39 15 4 31 2 38 -5 19 -19 65 -13
77 10 7 11 9 27 6 35 -7 18 -35 18 -42 0 -4 -12 -12 -13 -32 -5 -31 12 -89 4
-94 -13 -5 -14 -130 -13 -205 3 -51 10 -79 29 -55 37 17 5 44 60 37 72 -11 18
-32 10 -43 -15 -9 -19 -19 -25 -45 -25 -45 0 -73 30 -57 59 19 36 -11 57 -35
25 -10 -15 -17 -14 -74 7 -63 24 -106 57 -148 114 -18 25 -24 27 -32 15 -7
-10 -4 -25 11 -52 32 -56 70 -88 128 -107 49 -16 53 -20 71 -71 25 -71 24 -80
-6 -80 -14 0 -28 -7 -32 -15 -7 -21 -6 -22 50 -30 l47 -7 0 56 c0 31 2 56 4
56 15 0 113 -76 119 -93 13 -36 1 -49 -38 -41 -31 5 -35 4 -35 -14 0 -22 18
-32 59 -32 32 0 58 24 63 60 3 22 8 25 53 28 66 4 108 -4 134 -27 61 -53 -5
-151 -109 -165 -64 -9 -76 2 -54 47 14 30 23 37 47 37 22 0 28 4 25 18 -2 12
-13 17 -38 17 -29 0 -39 -6 -60 -38 -24 -38 -25 -38 -70 -32 -25 4 -60 13 -77
20 -33 14 -44 40 -21 47 7 3 9 12 5 22 -5 12 -13 16 -25 11 -40 -17 -50 -15
-97 18 -60 41 -66 63 -26 101 29 28 32 56 5 56 -7 0 -17 -8 -23 -17 -6 -11
-20 -17 -39 -15 -20 1 -32 -3 -36 -14 -5 -13 -9 -14 -21 -4 -20 16 -19 25 6
59 20 27 20 30 5 60 -16 30 -39 40 -51 21 -3 -5 0 -18 7 -29 17 -28 -1 -45
-40 -36 -44 9 -65 36 -53 68 8 21 6 31 -9 49 -16 18 -21 20 -29 9 -5 -7 -6
-22 -4 -32 8 -28 -8 -23 -55 17 -31 27 -42 43 -42 65 0 23 5 30 28 35 47 10
54 14 50 27 -7 19 -58 20 -94 1 -32 -17 -34 -17 -53 1 -28 24 -28 80 -2 95 24
12 61 0 91 -30 23 -23 40 -19 40 9 0 9 5 22 12 29 19 19 -2 31 -62 34 -41 2
-55 7 -55 18 0 11 14 16 54 18 43 3 61 -1 83 -18 21 -15 33 -19 42 -11 7 6 28
8 48 5 19 -4 61 -1 93 6 52 11 60 10 71 -4 10 -15 13 -14 26 6 15 22 17 22 79
10 84 -18 113 -36 105 -68 -6 -22 -4 -23 31 -21 32 2 40 -3 71 -43 42 -55 62
-62 62 -23 0 17 8 33 20 41 21 13 26 37 10 47 -5 3 -18 0 -29 -7 -17 -10 -24
-9 -43 8 -13 11 -52 33 -88 49 -81 35 -88 40 -92 73 -4 36 -49 42 -89 13 -48
-36 -79 -22 -79 36 0 21 -6 36 -15 40 -23 8 -29 -3 -30 -50 0 -23 -4 -48 -8
-54 -13 -20 -89 -15 -151 8 -44 17 -55 26 -53 42 4 36 -32 34 -46 -3 -8 -20
-20 -33 -37 -36 -14 -3 -35 -10 -48 -15 -15 -6 -30 -5 -43 2 -12 6 -32 13 -47
15 -14 3 -29 7 -34 10 -23 15 5 105 37 118 26 10 83 7 90 -4 12 -19 -5 -45
-42 -65 -44 -24 -54 -45 -21 -45 13 0 29 -5 36 -12 22 -22 61 28 71 92 6 32 9
35 45 38 61 5 86 -5 86 -33 0 -29 47 -65 84 -65 34 0 35 27 1 40 -36 14 -31
30 9 30 26 0 41 7 59 30 30 35 74 40 132 16 39 -17 43 -30 18 -58 -25 -28 -3
-45 30 -24 23 16 27 16 66 -5 29 -15 51 -19 72 -15 53 10 97 -34 52 -51 -50
-18 -35 -49 25 -48 l47 0 -1 35 c0 19 -4 43 -8 53 -14 31 15 19 65 -28 58 -54
88 -58 130 -16 24 25 29 37 29 81 0 70 -21 107 -65 116 -43 8 -65 -8 -65 -47
0 -34 19 -48 35 -26 16 22 32 21 45 -2 15 -28 12 -67 -5 -81 -21 -18 -56 -6
-106 36 -43 35 -45 36 -106 30 -61 -6 -77 0 -50 22 6 5 21 11 31 13 30 6 31
28 2 39 -14 5 -26 16 -26 25 0 8 -9 15 -20 15 -16 0 -20 -7 -20 -35 0 -26 -6
-39 -25 -51 -27 -18 -30 -16 -95 35 -20 16 -22 22 -11 34 7 9 29 17 49 19 26
2 38 8 40 21 5 28 -70 23 -123 -8 -36 -21 -49 -24 -77 -17 -48 12 -49 42 -1
75 21 14 55 29 75 32 20 4 44 16 54 26 21 23 24 21 -58 23 -61 1 -68 -1 -72
-20 -3 -11 -23 -33 -44 -48 -37 -25 -40 -26 -70 -10 -18 8 -40 14 -50 12 -29
-6 -19 -31 18 -43 37 -12 64 -52 54 -79 -9 -24 -48 -30 -111 -17 -31 6 -74 11
-95 11 -31 0 -38 4 -38 19 0 14 14 23 57 37 60 20 89 49 73 74 -8 12 -12 11
-32 -7 -13 -11 -41 -26 -63 -33 -22 -7 -56 -27 -75 -46 -24 -23 -52 -37 -87
-44 -44 -10 -60 -19 -92 -58 l-40 -46 -10 28 c-6 15 -11 50 -11 78 0 43 4 54
33 82 26 27 45 35 107 45 97 17 101 18 99 33 -1 7 -1 19 0 25 1 16 68 50 118
62 71 17 100 13 136 -19z"/>
<path d="M2953 7949 c-10 -10 8 -164 21 -177 16 -16 186 105 186 132 0 19 -42
35 -118 46 -83 12 -76 12 -89 -1z"/>
<path d="M4380 7895 c-14 -8 -44 -14 -66 -15 -52 0 -72 -20 -56 -56 14 -30 41
-42 52 -23 5 7 7 16 4 20 -2 4 5 9 16 12 14 4 20 0 20 -11 -1 -32 -28 -65 -61
-76 -24 -8 -34 -17 -34 -31 0 -17 6 -19 33 -17 31 3 32 2 32 -32 0 -29 4 -36
20 -36 17 0 20 7 20 45 0 41 2 45 24 45 26 0 51 24 41 40 -3 5 -15 10 -25 10
-19 0 -18 3 7 54 24 49 26 87 6 86 -4 -1 -19 -7 -33 -15z"/>
<path d="M4667 7903 c-13 -13 -6 -22 58 -78 40 -36 70 -55 80 -51 23 9 9 29
-59 85 -67 54 -69 55 -79 44z"/>
<path d="M3915 7882 c-58 -25 -61 -27 -63 -67 -2 -19 -7 -47 -12 -61 -6 -14
-8 -30 -4 -35 9 -16 40 -10 59 11 10 11 22 20 26 20 16 0 19 -40 5 -74 -16
-39 -47 -56 -102 -56 -27 0 -34 -4 -34 -20 0 -15 7 -20 28 -22 74 -4 110 12
142 65 38 61 17 147 -36 147 -17 0 -24 6 -24 19 0 14 13 24 50 36 37 12 50 22
50 36 0 24 -30 24 -85 1z"/>
<path d="M3390 7823 c-29 -11 -60 -47 -60 -70 0 -30 32 -31 45 0 12 26 52 35
61 13 8 -21 -25 -71 -85 -131 -76 -74 -68 -95 28 -70 32 8 73 15 90 15 24 0
31 4 31 20 0 17 -7 20 -52 20 l-52 0 38 39 c65 66 60 146 -9 164 -11 3 -27 3
-35 0z"/>
<path d="M8253 7788 c-12 -15 -29 -90 -38 -165 -6 -44 -4 -54 10 -59 19 -8
161 14 188 27 16 9 16 12 -3 49 -20 39 -126 160 -140 160 -4 0 -12 -6 -17 -12z
m82 -118 c16 -22 26 -42 24 -44 -2 -2 -26 -7 -53 -11 l-48 -8 7 54 c4 30 9 58
12 62 7 11 26 -6 58 -53z"/>
<path d="M3628 7738 c-2 -28 -8 -34 -30 -36 -20 -2 -28 -9 -28 -23 0 -15 7
-19 30 -19 23 0 33 -6 42 -25 6 -14 20 -25 31 -25 15 0 18 5 15 25 -4 17 -1
25 9 25 8 0 23 5 33 10 29 16 13 40 -26 40 -31 0 -34 3 -34 30 0 23 -5 30 -19
30 -15 0 -21 -8 -23 -32z"/>
<path d="M4092 7745 c-62 -15 -82 -29 -64 -47 9 -9 26 -8 74 3 50 11 63 18 63
33 0 25 -10 27 -73 11z"/>
<path d="M4140 7682 c-94 -13 -154 -46 -121 -66 13 -8 164 29 168 41 6 16 -20
29 -47 25z"/>
<path d="M2601 7588 c-90 -239 -179 -554 -170 -603 7 -33 62 -60 170 -84 57
-13 124 -29 149 -36 58 -16 87 -5 105 40 34 80 16 103 -114 146 -120 39 -128
46 -107 88 18 34 12 33 111 9 22 -5 48 -11 58 -14 35 -11 76 129 45 153 -7 6
-43 18 -80 29 -71 20 -81 32 -58 75 12 22 19 21 138 -17 87 -29 103 -29 131
-6 24 19 55 122 42 135 -8 8 -375 107 -399 107 -7 0 -16 -10 -21 -22z m79 -83
c-72 -39 -70 -39 -70 -25 0 13 89 59 115 59 11 0 -9 -15 -45 -34z m164 6 c4
-5 -28 -21 -71 -35 -42 -14 -86 -35 -97 -45 -29 -28 -100 -57 -94 -39 6 18
121 83 188 108 64 22 67 23 74 11z m110 -29 c3 -5 -20 -16 -52 -25 -31 -9 -65
-19 -74 -22 -11 -4 -18 -3 -18 4 0 6 8 11 18 11 9 0 35 9 57 19 45 22 62 25
69 13z m4 -64 c-5 -15 -58 -24 -58 -9 0 9 20 17 48 20 8 0 12 -5 10 -11z
m-347 -88 c-30 -17 -57 -28 -59 -25 -9 9 11 24 53 39 63 23 65 18 6 -14z m55
-39 c-5 -8 -123 -81 -132 -81 -18 0 5 25 48 55 48 32 97 47 84 26z m104 -18
c0 -13 -82 -58 -115 -63 -19 -3 -37 -17 -52 -39 -25 -36 -100 -97 -110 -88 -3
3 -1 18 4 32 15 47 273 195 273 158z m36 -68 c-7 -26 -29 -32 -55 -16 -11 7
-7 14 19 30 39 23 45 21 36 -14z m-227 -138 c-2 -1 -25 -20 -51 -41 -31 -24
-48 -32 -48 -23 0 15 90 80 99 71 2 -2 2 -5 0 -7z m26 -67 c-36 -37 -75 -53
-75 -30 0 14 79 70 99 70 10 0 1 -14 -24 -40z m115 11 c0 -12 -74 -71 -89 -71
-20 0 -11 20 22 50 31 28 67 40 67 21z m80 -28 c0 -5 -19 -23 -41 -42 -30 -25
-43 -31 -52 -22 -8 8 -6 15 8 25 11 8 29 21 40 30 21 16 45 21 45 9z m10 -68
c0 -8 -7 -15 -16 -15 -14 0 -14 3 -4 15 7 8 14 15 16 15 2 0 4 -7 4 -15z"/>
<path d="M5542 7554 c2 -14 21 -22 78 -36 95 -22 100 -22 100 1 0 20 -29 29
-141 47 -36 6 -41 5 -37 -12z"/>
<path d="M5540 7401 c0 -18 33 -36 108 -56 52 -15 5 35 -61 63 -38 16 -47 15
-47 -7z"/>
<path d="M8445 7318 c-2 -7 -3 -44 -2 -83 2 -55 5 -70 17 -70 11 0 16 17 20
73 3 40 4 77 2 82 -5 14 -32 12 -37 -2z"/>
<path d="M8257 7303 c-3 -5 2 -53 10 -106 13 -79 20 -97 32 -95 13 3 15 15 13
55 -6 99 -36 177 -55 146z"/>
<path d="M8604 7293 c-3 -10 -10 -30 -16 -45 -13 -36 -7 -72 14 -76 17 -3 25
22 31 97 2 37 -19 55 -29 24z"/>
<path d="M5510 7282 c0 -15 82 -71 96 -65 19 7 18 17 -6 38 -10 9 -26 15 -35
11 -9 -3 -14 -2 -11 3 3 5 -1 12 -10 15 -21 8 -34 8 -34 -2z"/>
<path d="M5811 7226 c-6 -7 -14 -28 -17 -47 -3 -19 -12 -54 -19 -79 -15 -46
-31 -132 -40 -210 -3 -25 -10 -72 -15 -105 -15 -94 -13 -96 186 -130 93 -15
171 -29 172 -31 2 -1 1 -16 -3 -33 -6 -30 -9 -31 -59 -31 -65 0 -89 -16 -84
-55 2 -24 13 -35 55 -58 60 -32 177 -57 266 -57 78 0 131 24 135 61 3 29 -19
48 -81 69 -35 11 -38 15 -32 39 4 14 8 27 9 29 2 1 71 -10 155 -24 88 -15 156
-23 161 -18 13 13 83 418 84 484 1 54 1 55 -36 67 -73 24 -279 63 -523 97
-137 20 -262 38 -277 41 -15 2 -31 -2 -37 -9z m309 -77 c226 -32 510 -85 522
-97 6 -6 -68 -451 -76 -460 -2 -2 -152 22 -332 53 -181 31 -360 62 -399 68
l-70 12 3 55 c4 86 51 349 68 381 12 23 19 28 42 24 15 -3 124 -19 242 -36z
m88 -545 c25 -7 30 -39 6 -48 -30 -12 -84 -6 -90 9 -15 38 22 55 84 39z m-77
-99 c129 -17 201 -35 200 -50 -1 -14 -155 -18 -214 -5 -68 14 -140 47 -132 60
8 13 9 13 146 -5z"/>
<path d="M5895 7118 c-2 -7 -6 -24 -8 -38 -3 -14 -15 -59 -26 -100 -21 -78
-27 -175 -12 -199 6 -9 57 -20 158 -32 81 -10 212 -30 291 -45 78 -14 149 -24
157 -20 23 8 18 25 -11 36 -38 15 -237 49 -406 70 -82 10 -152 21 -155 24 -8
8 12 129 36 219 12 43 19 82 16 87 -9 14 -35 12 -40 -2z"/>
<path d="M3007 7164 c-18 -19 -2 -32 54 -44 42 -9 63 -10 71 -2 16 16 2 29
-39 37 -21 3 -47 9 -58 11 -11 3 -24 2 -28 -2z"/>
<path d="M3280 7058 c-7 -29 -24 -84 -37 -122 -15 -47 -20 -73 -13 -80 15 -15
35 11 54 70 22 66 73 114 124 114 31 0 31 -18 5 -109 -20 -67 -23 -85 -12 -92
20 -12 26 -4 44 59 9 31 23 69 31 84 15 28 59 44 94 33 26 -8 26 -60 0 -135
-10 -30 -16 -58 -14 -62 23 -37 74 67 74 151 0 67 -23 86 -100 84 -46 -1 -62
3 -76 18 -20 23 -43 24 -89 5 -32 -14 -34 -13 -37 7 -2 12 -10 23 -19 25 -13
2 -20 -10 -29 -50z"/>
<path d="M3001 7076 c-16 -19 9 -33 64 -38 30 -2 40 1 43 14 2 11 -6 18 -30
23 -18 3 -40 9 -49 11 -9 2 -22 -2 -28 -10z"/>
<path d="M4033 7083 c-20 -7 -15 -30 7 -36 34 -9 22 -33 -29 -57 -77 -36 -78
-59 -3 -91 36 -16 47 -17 54 -7 5 9 -1 21 -19 35 -15 12 -25 24 -23 25 3 2 24
16 48 31 48 31 56 66 20 91 -23 16 -34 18 -55 9z"/>
<path d="M3790 6997 c-13 -7 -35 -28 -48 -47 -20 -29 -23 -44 -19 -89 5 -71
38 -104 101 -99 29 2 42 8 44 21 3 14 -4 17 -36 17 -51 0 -72 23 -72 79 0 55
33 91 85 91 22 0 38 -6 41 -15 7 -18 30 -20 40 -3 4 6 -4 21 -20 35 -30 26
-77 30 -116 10z"/>
<path d="M8435 6955 c-127 -35 -155 -55 -155 -110 0 -41 16 -55 61 -55 l37 0
31 -162 c38 -199 39 -267 6 -378 -40 -134 -78 -345 -73 -409 10 -142 103 -178
321 -127 398 94 526 188 459 338 -27 63 -74 112 -222 234 -70 57 -139 121
-153 142 -31 44 -74 145 -127 298 l-38 111 29 26 c36 31 37 58 4 92 -32 31
-69 31 -180 0z m153 -27 c27 -27 11 -37 -128 -79 -77 -22 -105 -27 -120 -19
-45 24 -11 60 75 81 28 6 61 15 75 20 38 12 85 10 98 -3z m7 -251 c27 -83 65
-181 82 -216 18 -36 33 -66 33 -67 0 -1 -19 -5 -42 -9 -23 -4 -73 -18 -111
-31 -39 -13 -71 -24 -72 -24 -1 0 -5 51 -8 113 -3 65 -16 161 -32 230 -15 65
-25 121 -22 123 5 5 94 31 112 33 6 0 32 -68 60 -152z m155 -335 c0 -16 -96
-61 -161 -77 -118 -27 -155 -13 -74 29 77 40 235 72 235 48z m122 -81 c211
-171 261 -252 208 -338 -24 -39 -133 -93 -240 -118 -41 -10 -118 -31 -170 -46
-60 -18 -118 -29 -157 -29 -55 0 -67 4 -95 29 -28 25 -32 36 -36 91 -4 60 3
110 47 295 l16 70 42 -3 c74 -6 249 52 282 92 8 9 17 16 22 16 4 0 41 -27 81
-59z"/>
<path d="M8513 6758 c19 -75 80 -287 88 -307 7 -18 12 -21 23 -12 17 14 1 91
-48 241 -23 71 -36 96 -50 98 -15 3 -18 0 -13 -20z"/>
<path d="M8780 6216 c-18 -22 -5 -48 22 -44 17 2 23 10 23 28 0 29 -26 38 -45
16z"/>
<path d="M8530 6140 c-23 -43 17 -88 63 -71 13 5 27 17 31 26 19 50 -69 91
-94 45z m64 -19 c8 -12 -21 -34 -34 -26 -17 11 -11 35 9 35 11 0 22 -4 25 -9z"/>
<path d="M8890 6131 c-14 -26 -3 -50 26 -57 42 -11 72 34 42 64 -18 18 -56 14
-68 -7z m50 -21 c0 -5 -7 -10 -15 -10 -8 0 -15 5 -15 10 0 6 7 10 15 10 8 0
15 -4 15 -10z"/>
<path d="M8648 6105 c-16 -35 3 -75 35 -75 29 0 47 18 47 46 0 51 -62 73 -82
29z m52 -26 c0 -24 -23 -21 -28 4 -2 10 3 17 12 17 10 0 16 -9 16 -21z"/>
<path d="M8787 6092 c-21 -23 -22 -56 -1 -76 21 -21 47 -20 67 2 23 26 21 58
-5 76 -29 21 -41 20 -61 -2z m50 -28 c7 -20 -11 -38 -32 -30 -13 4 -14 10 -5
26 13 24 28 26 37 4z"/>
<path d="M8450 6056 c-16 -20 -9 -56 12 -70 14 -8 22 -6 40 11 19 19 20 26 10
48 -13 28 -43 33 -62 11z m40 -24 c0 -13 -12 -22 -22 -16 -10 6 -1 24 13 24 5
0 9 -4 9 -8z"/>
<path d="M8940 6030 c-11 -11 -20 -26 -20 -34 0 -24 30 -46 61 -46 39 0 57 41
34 76 -19 29 -48 31 -75 4z m55 -20 c4 -6 1 -17 -5 -26 -15 -18 -42 0 -33 22
6 16 29 19 38 4z"/>
<path d="M8622 5968 c-17 -17 -15 -42 6 -61 35 -32 82 -15 82 28 0 28 -19 45
-50 45 -14 0 -31 -5 -38 -12z m58 -34 c0 -9 -7 -14 -17 -12 -25 5 -28 28 -4
28 12 0 21 -6 21 -16z"/>
<path d="M8800 5950 c-35 -35 -20 -80 25 -80 25 0 55 29 55 53 0 15 -35 47
-52 47 -5 0 -17 -9 -28 -20z m45 -31 c0 -7 -8 -15 -17 -17 -18 -3 -25 18 -11
32 10 10 28 1 28 -15z"/>
<path d="M8480 5925 c-17 -21 -8 -50 17 -53 26 -4 41 31 23 53 -16 19 -24 19
-40 0z"/>
<path d="M8416 5848 c-31 -17 -13 -68 25 -68 23 0 42 26 34 48 -7 23 -36 33
-59 20z m29 -28 c3 -5 1 -10 -4 -10 -6 0 -11 5 -11 10 0 6 2 10 4 10 3 0 8 -4
11 -10z"/>
<path d="M8532 5848 c-34 -34 0 -88 46 -72 22 8 27 16 27 44 0 32 -3 35 -30
38 -17 2 -36 -3 -43 -10z m46 -31 c2 -10 -3 -17 -12 -17 -10 0 -16 9 -16 21 0
24 23 21 28 -4z"/>
<path d="M3025 6762 c-56 -19 -91 -74 -81 -126 8 -42 54 -85 97 -92 75 -12
150 85 118 151 -25 50 -88 82 -134 67z"/>
<path d="M2175 6697 c-39 -39 -54 -85 -62 -187 -6 -86 8 -197 38 -288 42 -128
130 -170 202 -98 47 47 67 112 74 236 6 122 -6 202 -43 278 -31 64 -71 92
-132 92 -36 0 -50 -6 -77 -33z m133 -22 c41 -35 61 -90 73 -209 18 -164 -11
-292 -73 -326 -84 -46 -148 97 -148 327 0 189 64 279 148 208z"/>
<path d="M4280 6656 c-58 -77 -130 -206 -130 -234 0 -22 3 -24 36 -17 l37 6
-7 -32 c-3 -17 -23 -68 -43 -113 -20 -44 -38 -102 -41 -127 -4 -44 9 -89 27
-89 5 0 62 40 127 90 77 59 122 86 128 80 18 -18 57 -10 84 18 15 15 47 50 71
77 25 28 56 62 70 78 23 25 24 29 9 43 -14 14 -23 7 -98 -76 -67 -72 -85 -88
-92 -75 -5 8 -15 15 -22 15 -8 0 -65 -39 -127 -86 -62 -47 -119 -89 -127 -91
-19 -8 -7 35 36 132 28 62 36 93 37 140 0 55 -2 60 -23 63 l-23 4 27 46 c15
26 46 75 70 109 24 34 44 69 44 77 0 31 -30 15 -70 -38z"/>
<path d="M1875 6638 c-3 -7 5 -66 18 -131 13 -65 20 -120 17 -122 -16 -10
-171 -42 -174 -36 -2 3 -14 53 -26 111 -24 111 -33 131 -51 113 -12 -12 -14
-1 55 -333 19 -91 39 -191 46 -222 9 -47 15 -58 31 -58 10 0 19 5 19 10 0 6
-13 76 -30 157 -16 80 -30 153 -30 162 0 13 20 21 86 34 48 10 87 17 89 15 1
-2 15 -73 31 -158 24 -125 32 -155 47 -158 24 -5 22 15 -12 193 -16 83 -39
204 -51 270 -13 66 -27 130 -31 143 -9 24 -27 29 -34 10z"/>
<path d="M1275 6610 c-20 -39 -19 -60 3 -60 20 0 52 56 45 78 -8 22 -32 13
-48 -18z"/>
<path d="M1406 6632 c-15 -24 -96 -247 -96 -264 0 -13 6 -18 18 -16 19 4 123
253 115 275 -6 15 -29 17 -37 5z"/>
<path d="M7986 6567 c-17 -12 -15 -20 33 -115 28 -56 57 -102 65 -102 15 0
146 169 146 188 0 14 -19 19 -105 32 -93 13 -118 12 -139 -3z m171 -50 c5 -6
-58 -96 -67 -97 -3 0 -18 25 -34 56 l-27 57 61 -6 c34 -3 64 -8 67 -10z"/>
<path d="M1456 6498 c-22 -34 -25 -91 -5 -96 12 -2 21 10 33 45 14 40 14 49 2
61 -12 12 -16 11 -30 -10z"/>
<path d="M3630 6433 c-42 -13 -62 -30 -80 -69 -18 -36 -19 -49 -11 -81 28
-103 148 -132 215 -52 56 66 38 156 -38 190 -42 19 -59 21 -86 12z m93 -75
c24 -29 17 -86 -14 -110 -51 -42 -129 -1 -129 68 0 69 98 98 143 42z"/>
<path d="M2935 6384 c-11 -2 -45 -9 -75 -15 -122 -24 -270 -131 -321 -232 -61
-119 -76 -257 -44 -411 28 -135 120 -320 160 -322 39 -2 44 -4 55 -24 8 -14 8
-26 0 -40 -10 -18 -1 -34 61 -118 39 -53 79 -112 87 -129 17 -36 41 -42 66
-17 21 21 20 57 -1 77 -10 8 -41 24 -69 35 -66 25 -93 50 -100 93 -8 47 28 98
81 116 40 14 40 13 67 -19 l27 -33 -27 -3 c-59 -6 -72 -12 -72 -35 0 -33 10
-42 70 -67 67 -29 96 -53 110 -95 18 -53 -25 -126 -82 -140 -26 -7 -27 -9 -21
-58 3 -29 7 -54 9 -56 2 -2 15 4 29 13 32 21 85 13 85 -12 0 -12 -3 -13 -12
-4 -20 20 -66 15 -78 -9 -27 -49 20 -96 69 -69 30 16 26 28 -11 33 -32 4 -32
4 5 5 33 2 37 -1 37 -23 0 -20 -6 -25 -37 -31 -26 -5 -45 -2 -64 8 l-27 16 -5
-40 c-17 -129 -182 -187 -328 -115 -29 14 -57 23 -61 19 -9 -9 -168 -423 -168
-438 0 -16 131 -79 205 -99 94 -25 255 -31 349 -11 103 21 211 74 279 136 121
111 176 238 185 432 5 115 0 142 -17 96 -5 -15 -4 -26 3 -30 6 -4 -2 -8 -19
-8 -22 0 -26 3 -16 9 12 8 13 16 2 53 -7 24 -18 46 -25 50 -7 5 -3 8 9 8 14 0
20 -7 21 -26 2 -32 12 -43 24 -24 18 28 -7 210 -28 210 -18 0 -42 61 -42 108
0 75 -2 77 -65 74 l-55 -4 0 -60 c0 -74 12 -98 49 -98 28 0 41 -15 41 -46 0
-16 -75 -20 -99 -5 -18 12 -52 106 -58 163 -4 41 -8 47 -29 50 -14 2 -25 8
-25 13 0 6 -8 18 -16 28 -15 16 -13 17 25 17 42 0 42 0 42 38 0 36 1 38 35 39
34 1 35 0 35 -38 0 -39 0 -39 40 -39 l41 0 -39 58 c-22 31 -71 98 -110 147
-39 50 -86 119 -104 153 -56 111 -47 213 23 265 36 26 105 33 149 15 l35 -14
62 170 63 170 -33 34 c-17 18 -64 49 -102 67 -56 27 -86 35 -150 39 -44 3 -89
3 -100 0z m45 -1002 c20 -16 21 -19 6 -31 -9 -8 -17 -12 -19 -10 -1 2 -13 16
-26 32 -24 26 -24 27 -4 27 11 0 31 -8 43 -18z m229 -510 c-14 -5 -11 -70 4
-75 7 -3 5 -6 -5 -6 -14 -1 -18 7 -18 39 0 25 -5 40 -12 41 -10 0 -10 2 0 6 6
2 12 12 12 21 0 13 3 12 14 -4 8 -10 10 -20 5 -22z m54 -26 c1 -31 -1 -56 -4
-56 -8 0 -17 90 -11 108 8 23 13 5 15 -52z m-152 24 c-36 -8 -38 -30 -4 -31
l28 -2 -28 -4 c-33 -5 -31 -25 4 -34 20 -6 21 -7 4 -8 -55 -2 -72 69 -21 89
12 4 25 5 31 2 5 -3 -1 -9 -14 -12z"/>
<path d="M7625 6278 c-88 -5 -194 -12 -235 -16 l-75 -7 -185 -277 c-102 -153
-188 -280 -192 -283 -3 -3 -56 53 -117 125 -62 71 -134 154 -160 182 l-48 52
-249 -18 c-137 -10 -250 -19 -251 -20 -2 -2 17 -271 37 -516 5 -69 10 -135 10
-147 0 -28 16 -30 23 -3 8 31 89 63 138 55 21 -4 39 -10 40 -13 6 -50 4 -62
-11 -56 -22 10 -82 5 -97 -8 -7 -6 -13 -21 -13 -34 0 -18 13 -29 67 -56 l67
-33 2 -92 3 -92 -31 -10 c-35 -13 -108 -15 -108 -3 0 4 -13 8 -28 9 l-28 2 8
-91 c10 -113 20 -135 39 -85 7 21 20 37 29 37 10 0 11 -3 4 -8 -7 -4 -19 -24
-28 -45 -8 -21 -20 -36 -26 -32 -6 3 -7 -1 -4 -10 4 -9 7 -46 8 -83 l1 -67
190 3 c105 2 209 6 233 9 l42 5 0 64 c0 34 -4 66 -10 69 -5 3 -10 24 -10 46 0
24 -5 39 -12 39 -9 0 -8 3 2 10 12 7 16 41 18 175 l3 165 -51 0 -51 0 3 -71
c3 -76 7 -82 61 -94 22 -4 28 -11 25 -28 -3 -19 -9 -22 -51 -21 -38 0 -53 6
-75 27 -24 25 -27 36 -30 110 l-4 82 -39 -3 c-38 -4 -39 -3 -39 27 0 30 2 31
40 31 39 0 40 1 40 34 0 31 3 34 35 38 35 4 35 4 35 -34 l0 -38 50 0 c50 0 50
0 50 32 l0 32 40 -39 c22 -21 48 -39 59 -40 11 -1 18 2 15 7 -11 17 105 8 138
-12 65 -38 90 -129 53 -187 -25 -38 -10 -39 18 -1 13 18 27 52 30 76 3 23 13
54 22 68 21 32 73 64 105 64 15 0 33 10 44 25 25 33 36 32 36 -4 0 -20 8 -36
28 -50 l27 -20 -27 -24 c-23 -20 -28 -33 -28 -71 0 -32 4 -46 13 -46 14 0 47
-31 47 -43 0 -4 -13 -13 -30 -22 -25 -13 -30 -21 -29 -53 0 -59 13 -119 22
-104 5 6 13 12 20 12 6 0 4 -6 -5 -12 -27 -22 -28 -45 -3 -58 33 -18 55 -6 55
29 0 20 -6 31 -17 34 -10 3 -2 5 17 6 19 0 31 -3 25 -7 -5 -4 -10 -23 -10 -42
1 -32 -2 -35 -28 -37 -16 -1 -38 2 -49 8 -19 10 -19 4 -12 -313 4 -178 7 -324
8 -325 6 -7 421 40 427 48 3 6 9 67 12 137 4 70 16 258 27 417 24 343 44 652
65 975 9 129 20 287 25 350 15 172 14 200 -7 199 -10 -1 -90 -6 -178 -11z
m-225 -983 c0 -58 4 -105 8 -105 5 0 21 14 37 30 16 17 31 30 35 30 3 0 4 -19
3 -42 -4 -52 -4 -56 -2 -88 4 -64 1 -66 -34 -32 -18 18 -36 32 -40 32 -4 0 -7
-27 -7 -60 l0 -60 -35 0 -35 0 0 193 c0 107 3 197 7 200 3 4 19 7 35 7 l28 0
0 -105z m168 -50 c-20 -19 -39 -35 -42 -35 -3 0 -6 16 -6 35 0 35 1 35 43 35
l42 0 -37 -35z m-1145 -115 c3 -14 2 -34 -3 -45 -5 -15 -8 -6 -11 32 -4 52 4
60 14 13z m1149 -80 l53 -50 -53 0 c-34 0 -52 4 -53 13 -3 21 -4 87 -2 87 1 0
26 -22 55 -50z m-1193 -143 c-2 -1 -15 -11 -29 -22 l-25 -20 19 23 c11 12 24
22 29 22 6 0 8 -1 6 -3z m61 -14 c0 -10 -4 -14 -8 -8 -4 6 -11 13 -16 18 -5 4
-2 7 7 7 10 0 17 -8 17 -17z m171 -40 c-1 -28 4 -50 11 -55 10 -5 8 -8 -4 -8
-14 0 -18 9 -18 40 0 25 -5 40 -12 41 -10 0 -10 2 0 6 6 2 12 12 12 21 0 8 3
12 7 9 3 -4 5 -28 4 -54z m-44 -9 c2 -14 0 -13 -7 4 -7 18 -16 23 -37 20 -39
-5 -40 -26 -1 -31 l33 -4 -37 -1 c-32 -2 -38 1 -38 18 0 46 81 40 87 -6z m891
2 c3 -11 -3 -16 -20 -15 -16 1 -18 3 -6 6 20 5 13 33 -8 33 -8 0 -14 5 -14 11
0 17 44 -15 48 -35z m-68 20 c-19 -24 -8 -61 19 -64 13 -2 28 2 33 10 8 10 9
10 5 -2 -6 -24 -50 -24 -72 0 -15 17 -16 24 -7 45 6 14 17 25 23 25 8 0 8 -4
-1 -14z m-1050 -26 c0 -11 12 -26 28 -34 15 -8 20 -15 12 -15 -8 -1 -20 3 -27
7 -16 10 -35 62 -23 62 6 0 10 -9 10 -20z m108 -18 c2 -15 -2 -22 -14 -22 -12
0 -14 3 -5 13 8 10 7 17 -2 26 -10 11 -9 13 3 9 8 -3 16 -14 18 -26z m1091 4
c9 -10 8 -16 -4 -26 -9 -7 -18 -10 -22 -6 -3 3 -1 6 5 6 16 0 15 27 0 33 -8 4
-9 6 -2 6 6 1 17 -5 23 -13z m-1014 -26 c12 0 27 6 35 13 12 10 12 9 1 -5 -7
-10 -24 -18 -36 -18 -12 0 -29 8 -36 18 -11 14 -11 15 1 5 8 -7 23 -13 35 -13z
m765 -35 c5 3 10 1 10 -4 0 -6 -4 -11 -9 -11 -18 0 -41 12 -41 22 0 6 6 5 15
-2 8 -6 19 -9 25 -5z"/>
<path d="M2057 6193 c-4 -3 -7 -17 -7 -31 0 -19 4 -23 20 -19 16 4 20 0 20
-20 0 -14 -8 -38 -17 -54 -15 -25 -16 -31 -4 -38 8 -5 19 -8 25 -6 6 2 23 6
39 9 29 7 40 46 12 46 -11 0 -15 12 -15 44 0 27 -6 51 -16 60 -16 16 -46 21
-57 9z"/>
<path d="M5127 5500 c-4 -348 -7 -747 -7 -886 l0 -252 133 -6 c72 -3 239 -8
370 -12 229 -6 239 -5 235 12 -3 17 -18 20 -158 25 -85 4 -221 7 -301 8 -80 0
-167 4 -193 7 l-46 7 2 386 3 386 190 5 c160 4 190 7 190 20 0 13 -29 15 -194
18 l-194 2 6 227 c4 124 7 321 7 436 l0 210 321 -6 c276 -5 321 -3 326 9 3 8
4 17 2 19 -2 2 -157 7 -345 11 l-341 7 -6 -633z"/>
<path d="M1123 6090 c-48 -20 -55 -103 -12 -134 11 -8 28 -29 37 -47 13 -25
34 -42 85 -67 l67 -33 0 -102 c0 -56 -5 -158 -10 -226 -9 -132 -7 -154 19
-149 13 3 18 30 28 168 6 91 12 201 12 246 1 94 -2 98 -92 135 -79 32 -87 43
-54 77 62 65 1 166 -80 132z m62 -61 c10 -30 -18 -57 -39 -39 -16 13 -21 42
-9 53 14 14 42 6 48 -14z"/>
<path d="M1425 6008 c-52 -30 -61 -94 -20 -132 30 -28 31 -61 10 -276 -8 -80
-15 -175 -15 -212 0 -59 2 -68 18 -68 17 0 21 24 42 266 l23 265 28 29 c68 68
-4 175 -86 128z m63 -70 c-3 -37 -35 -50 -57 -24 -18 22 3 56 35 56 22 0 25
-4 22 -32z"/>
<path d="M8104 5810 c-12 -5 -29 -19 -38 -32 -49 -70 27 -170 104 -138 77 32
82 128 10 165 -32 17 -45 18 -76 5z m76 -56 c10 -11 11 -23 4 -42 -8 -22 -16
-27 -44 -27 -28 0 -36 5 -44 27 -12 34 6 58 44 58 15 0 33 -7 40 -16z"/>
<path d="M1146 5789 c-35 -28 -36 -81 -1 -113 25 -23 25 -26 25 -179 0 -86 4
-158 8 -161 22 -14 30 20 37 167 6 137 9 161 26 178 27 27 24 75 -6 104 -30
30 -54 31 -89 4z m64 -53 c0 -32 -18 -43 -37 -23 -20 20 -10 47 17 47 15 0 20
-7 20 -24z"/>
<path d="M1656 5714 c-9 -8 -19 -27 -22 -42 -10 -48 -13 -52 -39 -52 -14 0
-37 -11 -50 -24 -24 -24 -32 -68 -37 -216 -3 -59 -1 -65 17 -65 18 0 21 10 30
115 6 63 14 120 18 127 10 15 71 33 115 33 40 0 82 38 82 75 0 53 -77 87 -114
49z m60 -39 c6 -16 -12 -45 -27 -45 -10 0 -12 44 -2 53 11 11 23 8 29 -8z"/>
<path d="M2206 5702 c-38 -73 -196 -477 -192 -489 7 -16 32 -17 39 0 2 6 48
119 102 250 53 130 94 244 91 252 -8 23 -24 18 -40 -13z"/>
<path d="M3570 5675 c0 -12 15 -15 68 -16 136 -1 452 -15 457 -20 6 -7 6 -453
-1 -1096 -6 -516 -4 -574 20 -535 3 5 8 370 11 812 4 442 9 808 12 813 3 4
124 5 269 1 200 -5 264 -4 264 5 0 6 -6 13 -12 16 -13 4 -935 35 -1035 35 -40
0 -53 -4 -53 -15z"/>
<path d="M1977 5638 c-65 -183 -73 -230 -35 -216 16 7 92 233 83 248 -13 22
-34 8 -48 -32z"/>
<path d="M9046 5655 c-21 -19 -26 -33 -26 -70 0 -81 70 -127 143 -94 60 27 75
113 28 160 -39 39 -105 41 -145 4z m114 -35 c24 -24 25 -38 4 -68 -28 -41
-104 -18 -104 31 0 51 63 74 100 37z"/>
<path d="M2240 5425 c-22 -58 -38 -110 -34 -116 16 -27 39 2 75 95 44 114 46
126 20 126 -15 0 -28 -22 -61 -105z"/>
<path d="M8532 5498 c-26 -13 -62 -76 -62 -109 0 -71 73 -135 142 -126 62 8
100 51 106 120 4 49 1 57 -25 87 -26 28 -37 34 -84 36 -30 2 -64 -2 -77 -8z
m126 -64 c27 -31 28 -50 2 -91 -19 -31 -37 -39 -80 -34 -27 3 -60 50 -60 85 0
72 86 97 138 40z"/>
<path d="M2426 5475 c-29 -29 -33 -85 -6 -85 5 0 19 18 30 39 16 33 17 41 6
50 -11 9 -18 8 -30 -4z"/>
<path d="M9073 5266 c-68 -31 -73 -124 -9 -178 57 -47 156 9 156 89 0 71 -79
118 -147 89z"/>
<path d="M6171 5219 c1 -36 15 -139 18 -127 0 4 16 -1 34 -12 60 -37 127 -19
127 34 0 29 -22 48 -80 70 -25 10 -57 29 -72 44 l-28 26 1 -35z"/>
<path d="M1516 5230 c-16 -5 -43 -22 -60 -38 -17 -17 -48 -33 -68 -36 -28 -5
-42 -14 -53 -36 -20 -39 -19 -62 6 -94 11 -14 19 -34 17 -44 -3 -15 -17 -17
-113 -17 -122 0 -153 -10 -199 -65 -54 -64 -26 -162 75 -263 l61 -61 -30 -56
c-64 -118 -83 -252 -43 -309 12 -17 33 -34 47 -37 14 -4 31 -19 39 -34 8 -15
28 -33 45 -40 28 -11 34 -11 58 7 15 11 33 31 40 45 10 21 60 48 66 36 1 -2
11 -23 23 -48 73 -157 201 -201 299 -103 40 40 101 159 110 214 l6 37 77 7
c109 9 176 30 219 69 38 35 38 35 33 136 0 8 2 36 5 62 5 42 3 50 -21 74 -23
23 -31 25 -71 19 -24 -3 -44 -4 -44 -2 0 3 16 28 35 57 74 110 73 198 -4 263
-53 44 -163 57 -267 31 -19 -5 -27 2 -50 48 -74 147 -151 204 -238 178z m77
-51 c39 -20 68 -53 103 -115 19 -33 34 -65 34 -70 0 -5 -38 -26 -84 -47 l-84
-39 -55 16 c-30 9 -64 16 -75 16 -41 0 -38 46 4 56 29 7 74 58 74 83 0 10 -9
30 -21 44 l-20 27 33 20 c38 23 60 25 91 9z m-143 -84 c7 -8 10 -22 6 -30 -14
-37 -86 -30 -86 9 0 12 3 26 7 29 12 13 60 7 73 -8z m566 -141 c47 -22 64 -50
64 -104 0 -43 -43 -138 -69 -154 -5 -4 -47 18 -93 48 l-84 55 -17 73 c-10 40
-17 76 -17 80 0 22 170 24 216 2z m-247 -65 c7 -27 11 -52 8 -55 -6 -6 -137
48 -137 56 0 8 88 49 106 50 5 0 16 -23 23 -51z m-431 26 c2 -2 0 -42 -4 -91
l-7 -87 -48 -51 c-27 -28 -49 -54 -49 -58 0 -20 -30 -3 -71 40 -59 61 -77 91
-85 140 -10 65 16 95 99 112 35 7 155 3 165 -5z m150 -34 c11 -6 2 -18 -41
-50 -31 -22 -60 -41 -65 -41 -8 0 -6 38 4 89 5 21 8 23 46 17 23 -4 48 -10 56
-15z m214 -71 c49 -21 92 -40 94 -43 5 -5 24 -182 24 -229 0 -34 -6 -41 -82
-103 -72 -57 -87 -65 -113 -60 -36 6 -185 76 -226 106 -29 20 -29 21 -29 127
l0 107 37 30 c91 74 158 114 181 109 13 -2 64 -22 114 -44z m209 -111 l61 -41
-24 -26 c-12 -15 -36 -39 -53 -54 l-30 -27 -7 62 c-4 34 -9 77 -12 95 -2 17
-3 32 0 32 3 0 32 -18 65 -41z m-588 -162 c-2 -4 -20 5 -39 19 l-34 26 33 41
32 41 6 -59 c3 -33 4 -63 2 -68z m681 45 c-11 -71 39 -125 97 -107 16 5 19 1
19 -28 0 -62 -52 -93 -180 -103 l-80 -7 0 69 0 69 72 72 c40 40 74 73 75 73 2
0 0 -17 -3 -38z m132 3 c8 -34 -21 -67 -55 -63 -52 6 -34 88 19 88 23 0 31 -5
36 -25z m-854 -80 c37 -27 48 -42 54 -72 3 -21 15 -72 25 -115 23 -92 23 -84
3 -92 -10 -4 -24 5 -41 24 -34 41 -75 41 -115 -2 l-30 -32 -24 27 c-39 46 -34
115 17 216 22 44 46 81 52 81 7 0 33 -16 59 -35z m207 -124 c77 -37 98 -51 88
-59 -25 -21 -141 -71 -149 -64 -6 7 -48 148 -48 164 0 12 0 12 109 -41z m324
7 c-3 -24 -7 -45 -9 -46 -5 -7 -84 9 -84 16 1 8 82 72 92 72 3 0 4 -19 1 -42z
m-87 -83 c77 -10 75 -8 58 -67 -38 -127 -106 -208 -174 -208 -33 0 -47 7 -80
40 -37 37 -80 107 -80 129 0 6 10 13 23 16 12 4 58 28 102 55 44 26 85 47 91
45 6 -2 33 -6 60 -10z m-427 -93 c21 -40 -23 -89 -58 -67 -12 7 -14 44 -5 69
8 22 51 20 63 -2z"/>
<path d="M1536 4721 c-43 -28 -66 -70 -66 -119 0 -37 6 -50 34 -78 51 -51 116
-44 176 21 20 22 25 37 25 82 0 49 -3 58 -33 84 -39 35 -92 39 -136 10z m111
-53 c19 -16 16 -62 -7 -91 -45 -57 -120 -39 -120 29 0 63 79 102 127 62z"/>
<path d="M6807 5214 c-8 -8 95 -124 105 -118 10 6 10 75 0 90 -17 26 -88 45
-105 28z"/>
<path d="M8026 5175 c-57 -53 -19 -155 59 -155 48 0 95 45 95 90 0 22 -9 41
-29 61 -38 38 -87 39 -125 4z m92 -37 c28 -28 0 -81 -39 -71 -29 8 -46 48 -29
68 15 18 51 20 68 3z"/>
<path d="M2367 5111 c-87 -32 -102 -42 -94 -65 12 -30 167 -109 183 -94 8 9
34 170 28 179 -8 14 -34 10 -117 -20z"/>
<path d="M8806 4990 c-58 -18 -116 -92 -116 -150 0 -16 -3 -30 -6 -30 -3 0
-24 13 -47 29 -123 83 -282 68 -378 -36 -64 -70 -84 -123 -83 -223 0 -76 4
-91 33 -146 72 -135 142 -177 358 -214 35 -6 97 -27 138 -47 70 -33 81 -35
144 -31 289 21 453 365 272 571 -79 89 -234 119 -339 65 l-52 -27 0 50 c0 76
36 132 96 148 19 5 29 14 29 26 0 22 -11 26 -49 15z"/>
<path d="M6672 4840 c0 -14 2 -19 5 -12 2 6 2 18 0 25 -3 6 -5 1 -5 -13z"/>
<path d="M6826 4661 c-8 -12 -26 -183 -26 -243 0 -58 16 -62 67 -17 19 16 37
28 40 26 2 -3 -3 -48 -12 -101 -19 -119 -19 -116 4 -116 22 0 33 40 51 189 13
113 6 122 -62 75 -21 -15 -40 -25 -42 -23 -1 2 2 45 7 96 5 50 7 99 4 107 -7
18 -23 21 -31 7z"/>
<path d="M6273 4341 c-80 -50 -39 -186 57 -186 42 0 73 22 97 68 20 39 2 92
-41 118 -39 24 -73 24 -113 0z m102 -51 c35 -38 -6 -99 -57 -87 -33 9 -51 49
-36 82 14 32 66 35 93 5z"/>
<path d="M8025 4246 c-91 -29 -115 -43 -115 -64 0 -30 167 -119 186 -99 10 9
27 154 21 171 -8 20 -7 20 -92 -8z m49 -68 c-4 -24 -9 -45 -11 -47 -5 -7 -93
37 -93 47 0 8 75 40 98 41 9 1 10 -10 6 -41z"/>
<path d="M3362 4205 c-60 -43 -68 -118 -18 -172 29 -32 40 -38 76 -38 36 0 47
6 76 38 45 49 47 102 6 148 -34 38 -103 50 -140 24z m102 -51 c24 -24 20 -80
-6 -98 -29 -21 -51 -20 -79 2 -28 24 -31 79 -4 98 25 19 70 18 89 -2z"/>
<path d="M6707 4038 c-81 -11 -187 -68 -243 -132 -49 -56 -84 -148 -84 -220 0
-98 53 -238 134 -355 39 -57 42 -70 55 -198 11 -108 35 -162 88 -198 50 -34
126 -35 174 -2 66 44 94 95 127 231 27 113 36 133 84 201 126 178 142 217 136
330 -11 216 -230 376 -471 343z m236 -87 c163 -79 232 -256 158 -402 -15 -31
-51 -85 -78 -121 -28 -37 -63 -91 -77 -122 -22 -46 -31 -56 -51 -56 -24 0 -25
3 -25 58 0 85 24 154 64 190 51 45 62 69 40 93 -20 23 -49 17 -76 -15 l-17
-21 -1 21 c0 12 -7 27 -15 34 -27 22 -49 7 -67 -45 -21 -65 -43 -67 -39 -3 2
37 -1 49 -17 57 -22 12 -62 -10 -62 -35 0 -16 -16 -19 -25 -4 -10 15 -46 12
-67 -7 -38 -34 -13 -106 43 -126 9 -3 19 -22 22 -44 8 -47 9 -138 1 -145 -13
-14 -46 8 -59 39 -8 19 -26 48 -39 64 -44 52 -103 184 -117 258 -28 159 48
287 210 353 36 14 66 18 137 15 79 -2 100 -7 157 -36z m-308 -431 c3 -5 1 -10
-4 -10 -6 0 -11 5 -11 10 0 6 2 10 4 10 3 0 8 -4 11 -10z m198 -76 c-2 -10 -8
-52 -13 -92 -6 -40 -9 -81 -5 -91 7 -24 -15 -33 -67 -25 -38 7 -40 8 -34 39 4
18 2 65 -4 104 -6 40 -8 76 -6 80 3 4 33 6 68 6 56 -1 63 -3 61 -21z m-58
-257 c44 -1 92 2 108 6 24 7 27 5 27 -16 0 -29 -9 -40 -24 -28 -6 4 -66 6
-133 3 -109 -4 -123 -7 -123 -22 0 -29 103 -39 213 -21 26 4 49 5 51 2 2 -3
-3 -22 -12 -41 -13 -31 -15 -33 -22 -15 -6 19 -14 20 -106 16 -100 -3 -124
-12 -101 -39 9 -12 32 -14 109 -9 l97 5 -15 -23 c-8 -13 -31 -31 -51 -40 -29
-14 -43 -15 -73 -6 -64 19 -91 65 -105 178 -9 67 -4 74 43 61 20 -6 73 -11
117 -11z"/>
<path d="M2195 4003 c-43 -6 -54 -21 -30 -39 19 -14 19 -16 2 -132 -17 -122
-37 -167 -73 -167 -13 0 -22 13 -32 45 -17 59 -7 236 14 244 8 3 14 12 14 21
0 22 -73 20 -95 -2 -16 -16 -16 -18 1 -32 17 -14 19 -28 16 -118 -4 -122 17
-187 63 -199 78 -20 119 52 144 254 6 44 16 81 26 92 18 19 13 41 -8 39 -7 -1
-25 -4 -42 -6z"/>
<path d="M2610 3926 c-97 -49 -126 -75 -101 -90 17 -11 221 96 221 116 0 9 -4
19 -8 22 -4 2 -55 -19 -112 -48z"/>
<path d="M8439 3904 c-19 -14 -56 -37 -82 -50 l-49 -25 -48 45 c-43 41 -89 60
-90 39 0 -5 -22 -32 -48 -61 l-47 -52 -70 45 c-38 24 -77 45 -85 45 -8 0 -28
-22 -43 -50 -15 -27 -32 -52 -37 -55 -5 -3 -39 6 -75 20 -36 15 -72 25 -79 22
-7 -3 -23 -30 -35 -61 l-23 -55 -77 6 c-76 6 -78 5 -84 -18 -4 -13 -7 -43 -7
-65 0 -41 -1 -42 -77 -85 -46 -26 -79 -52 -81 -62 -3 -12 14 -36 47 -68 l50
-48 -22 -61 c-26 -74 -21 -80 69 -80 70 0 74 -5 74 -92 0 -27 3 -48 7 -48 4 0
45 12 91 26 l84 25 48 -40 c27 -23 56 -41 65 -41 9 0 50 23 92 51 51 34 80 49
88 43 7 -5 36 -28 64 -51 62 -50 70 -49 145 25 l53 52 66 -30 c77 -35 126 -42
137 -20 4 8 16 34 26 58 19 48 26 49 132 31 42 -7 67 -8 73 -2 6 6 15 40 22
76 l11 65 78 23 c43 12 81 26 84 31 3 5 -8 33 -26 64 l-31 55 61 73 c33 40 60
80 60 88 0 16 -62 28 -143 28 l-39 0 4 63 3 62 -30 -2 c-16 0 -63 -9 -104 -19
-83 -20 -73 -25 -123 60 -15 25 -31 46 -36 46 -4 0 -24 -12 -43 -26z m-180
-88 c19 -20 42 -36 51 -36 9 0 48 20 88 45 l72 44 37 -54 c41 -63 44 -63 151
-36 l72 19 0 -58 0 -58 68 -7 c37 -4 70 -7 75 -8 4 -1 -16 -31 -45 -66 l-52
-64 27 -48 27 -49 -26 -10 c-14 -6 -45 -15 -70 -21 -38 -10 -45 -16 -54 -48
-5 -20 -10 -45 -10 -56 -1 -48 -37 -55 -152 -29 -26 6 -30 2 -59 -60 l-31 -66
-36 19 c-21 10 -61 26 -89 35 -51 17 -54 17 -80 -2 -16 -11 -44 -36 -62 -56
-40 -42 -51 -44 -77 -15 -10 12 -36 35 -57 52 l-38 30 -42 -23 c-23 -13 -64
-39 -90 -57 l-48 -34 -41 41 c-46 45 -65 48 -142 25 -27 -8 -53 -15 -57 -15
-4 0 -9 28 -11 63 l-3 62 -67 3 c-38 2 -68 4 -68 6 0 1 7 27 16 56 15 51 15
55 -2 67 -34 25 -74 63 -74 71 0 5 30 23 68 42 37 18 70 38 74 44 4 6 8 32 8
57 0 25 2 48 5 50 2 3 30 2 62 -2 32 -3 65 -2 75 2 9 5 24 31 33 59 9 27 18
50 19 50 1 0 30 -11 64 -25 86 -35 94 -33 126 25 15 28 32 50 37 50 6 0 41
-18 78 -40 37 -22 72 -40 79 -40 6 0 33 27 59 59 53 66 55 66 112 7z"/>
<path d="M8503 3688 c-9 -11 -14 -41 -26 -143 -1 -15 5 -21 26 -23 22 -3 27
-8 27 -30 0 -36 14 -56 34 -49 13 5 16 23 16 97 0 88 -1 90 -24 90 -19 0 -22
4 -19 23 6 29 -19 54 -34 35z"/>
<path d="M8660 3675 c-5 -14 -10 -32 -10 -38 0 -7 -9 -27 -20 -45 -26 -43 -26
-66 0 -59 17 4 20 0 20 -23 0 -42 10 -60 31 -60 18 0 19 7 17 122 -2 86 -7
123 -15 125 -7 3 -17 -7 -23 -22z"/>
<path d="M8405 3668 c-2 -7 -9 -30 -15 -50 -6 -20 -18 -42 -26 -48 -21 -18
-18 -50 5 -50 17 0 20 -8 23 -47 3 -40 6 -48 23 -48 19 0 20 8 25 118 3 64 4
122 2 127 -5 14 -32 12 -37 -2z"/>
<path d="M8157 3622 c-20 -22 -22 -51 -3 -58 8 -3 11 -15 8 -30 -4 -20 -1 -24
22 -24 22 0 26 -4 26 -29 0 -36 -24 -59 -45 -41 -17 15 -35 5 -35 -20 0 -34
68 -42 99 -11 27 27 35 85 17 123 -9 17 -16 46 -16 63 0 46 -42 61 -73 27z"/>
<path d="M7747 3614 c-119 -14 -174 -35 -197 -76 -21 -38 -4 -82 33 -86 19 -2
27 1 27 12 0 8 -4 18 -10 21 -16 10 -11 44 8 53 9 5 30 12 46 16 l28 7 -4
-105 c-3 -84 -7 -108 -22 -125 -21 -24 -14 -54 11 -49 34 6 57 75 60 178 1 52
2 99 3 105 0 6 3 6 9 0 5 -6 11 -53 13 -106 3 -82 7 -102 28 -133 25 -37 47
-44 80 -26 40 22 43 116 3 108 -13 -3 -17 -12 -15 -29 3 -32 -20 -56 -36 -37
-5 7 -11 63 -13 123 l-4 110 52 5 c58 6 68 12 60 35 -7 17 -14 17 -160 -1z"/>
<path d="M7945 3497 c-9 -12 -11 -25 -6 -31 5 -6 11 -22 13 -36 3 -23 7 -25
48 -22 25 2 51 10 59 18 13 12 12 16 -2 32 -12 13 -14 21 -6 29 19 19 2 30
-46 31 -35 0 -48 -4 -60 -21z"/>
<path d="M8272 3428 c-15 -15 -16 -65 -2 -73 16 -10 40 14 40 40 0 30 -22 49
-38 33z"/>
<path d="M1695 3908 c-22 -6 -46 -12 -52 -14 -7 -2 -13 -11 -13 -20 0 -14 9
-16 54 -12 63 5 93 23 75 44 -6 8 -14 13 -18 13 -3 -1 -24 -6 -46 -11z"/>
<path d="M5282 3894 c-38 -19 -50 -40 -34 -56 7 -7 19 -4 38 11 32 25 52 26
82 5 15 -10 22 -25 22 -48 0 -37 -23 -63 -87 -95 -67 -33 -112 -78 -119 -118
-8 -42 6 -55 47 -43 16 5 65 12 109 16 57 5 80 10 80 20 0 21 -38 26 -118 16
-56 -6 -72 -6 -72 4 0 16 51 55 115 87 71 35 90 60 89 114 -2 80 -79 124 -152
87z"/>
<path d="M5936 3902 c-10 -16 -76 -198 -76 -209 0 -7 10 -15 23 -17 78 -16 74
-13 73 -57 -1 -23 4 -44 10 -46 9 -3 56 112 71 175 9 37 -25 27 -44 -13 -15
-32 -20 -35 -48 -29 -16 3 -32 8 -33 9 -2 2 10 40 27 84 17 44 31 87 31 96 0
15 -25 21 -34 7z"/>
<path d="M2836 3824 c-123 -53 -353 -200 -364 -231 -11 -35 35 -18 134 49 60
40 157 96 217 123 72 34 106 55 104 65 -4 23 -27 22 -91 -6z"/>
<path d="M1675 3793 c-11 -93 -36 -268 -41 -295 -3 -16 -12 -28 -20 -28 -8 0
-14 -9 -14 -20 0 -14 9 -21 33 -25 57 -11 120 28 67 42 -24 6 -24 19 -6 133 8
47 17 120 21 163 7 73 6 77 -13 77 -17 0 -22 -8 -27 -47z"/>
<path d="M4694 3829 c-30 -9 -104 -79 -104 -98 0 -28 26 -20 57 18 30 35 40
41 73 41 48 0 64 -19 56 -64 -5 -26 -19 -44 -64 -77 -69 -51 -98 -83 -113
-127 -17 -50 -4 -57 83 -44 40 6 99 14 131 18 37 4 57 11 57 20 0 23 -18 25
-121 13 -55 -6 -103 -9 -106 -6 -3 4 18 28 47 54 136 125 130 118 130 161 0
72 -56 112 -126 91z"/>
<path d="M4957 3786 c-3 -7 8 -26 24 -42 35 -33 35 -37 7 -74 -17 -23 -19 -33
-10 -42 9 -9 19 -5 42 17 l30 29 33 -32 c18 -18 38 -32 44 -32 28 0 22 25 -13
61 l-39 40 18 30 c33 58 11 82 -29 32 l-22 -27 -35 27 c-41 31 -43 32 -50 13z"/>
<path d="M1230 3764 c0 -21 59 -155 76 -173 12 -13 16 -12 34 4 34 31 100 138
100 162 0 22 -3 23 -105 23 -89 0 -105 -2 -105 -16z"/>
<path d="M5573 3764 c-3 -8 -3 -17 0 -20 9 -10 146 -42 151 -36 16 15 2 32
-31 41 -106 29 -114 30 -120 15z"/>
<path d="M1804 3666 c-10 -26 5 -37 43 -30 26 5 34 4 29 -5 -4 -6 -24 -11 -45
-11 -42 0 -52 -6 -44 -26 7 -18 96 -19 111 -1 5 6 9 28 8 47 -1 34 -2 35 -49
38 -35 2 -49 -1 -53 -12z"/>
<path d="M5580 3660 c0 -18 6 -20 61 -20 52 0 60 2 57 18 -2 13 -15 18 -61 20
-52 3 -57 1 -57 -18z"/>
<path d="M2848 3644 c-28 -15 -39 -54 -15 -54 6 0 27 9 45 20 54 33 25 65 -30
34z"/>
<path d="M3338 3597 c-38 -33 -48 -66 -48 -157 0 -82 32 -217 69 -288 26 -50
79 -99 117 -106 38 -8 82 24 110 81 56 116 -14 403 -115 470 -45 30 -98 30
-133 0z"/>
<path d="M2045 3593 c-47 -4 -70 -17 -59 -35 6 -10 140 -9 204 0 31 5 46 12
48 25 3 15 -5 17 -70 15 -40 -1 -95 -3 -123 -5z"/>
<path d="M4083 3579 c-83 -24 -107 -143 -42 -208 81 -82 209 -22 209 98 0 36
-6 49 -34 77 -19 19 -43 34 -54 34 -11 0 -26 2 -34 4 -7 2 -27 0 -45 -5z m86
-54 c68 -35 35 -145 -44 -145 -41 0 -75 38 -75 84 0 36 7 48 35 64 27 15 51
15 84 -3z"/>
<path d="M2090 3513 c-19 -2 -44 -8 -55 -12 -11 -5 -28 -12 -38 -15 -27 -9
-17 -42 12 -38 l23 2 -5 -107 c-3 -67 -9 -109 -16 -111 -15 -5 -14 -29 2 -35
7 -2 30 -2 52 2 44 7 56 34 18 39 -20 3 -21 7 -16 55 3 29 7 54 9 56 5 6 68
-36 93 -63 13 -14 21 -32 18 -40 -9 -24 15 -34 66 -27 49 6 64 22 29 31 -11 3
-45 30 -75 60 l-55 54 29 33 c62 71 18 127 -91 116z m70 -62 c0 -22 -35 -51
-62 -51 -13 0 -18 8 -18 28 0 37 6 42 47 42 26 0 33 -4 33 -19z"/>
<path d="M3000 3473 c0 -11 16 -66 35 -124 33 -97 34 -105 18 -116 -25 -19
-123 -54 -133 -48 -5 3 -25 55 -45 115 -20 60 -40 112 -44 114 -4 3 -13 1 -20
-3 -10 -7 6 -65 74 -270 73 -219 90 -261 106 -261 26 0 24 14 -21 141 -22 61
-38 115 -35 119 3 4 20 11 38 14 18 3 49 15 70 26 l37 20 10 -22 c6 -13 25
-66 43 -118 22 -66 37 -96 50 -98 9 -2 17 3 17 10 0 7 -38 126 -83 263 -61
182 -88 251 -100 253 -11 2 -17 -3 -17 -15z"/>
<path d="M5340 3383 c0 -12 32 -36 98 -72 53 -30 111 -64 128 -77 17 -12 53
-35 80 -50 27 -15 51 -30 54 -33 3 -4 29 -24 58 -45 38 -27 56 -36 64 -28 15
15 5 35 -28 52 -16 8 -39 23 -52 34 -12 11 -37 29 -56 40 -18 12 -71 46 -117
77 -106 70 -194 119 -214 119 -8 0 -15 -8 -15 -17z"/>
<path d="M5613 3354 c-4 -12 0 -21 11 -28 10 -6 38 -26 62 -44 43 -32 64 -35
64 -7 0 12 -40 42 -118 89 -7 4 -15 1 -19 -10z"/>
<path d="M2490 3318 c-36 -25 -58 -60 -80 -126 -12 -37 -11 -57 2 -150 19
-125 42 -185 93 -241 66 -73 153 -79 215 -16 31 32 35 41 35 93 0 44 -3 57
-15 57 -11 0 -17 -15 -20 -53 -7 -67 -34 -91 -99 -92 -39 0 -49 5 -86 43 -78
82 -117 260 -79 370 29 87 106 124 141 70 22 -35 35 -45 47 -33 12 12 -12 67
-38 85 -30 22 -78 18 -116 -7z"/>
<path d="M3682 3308 c-18 -18 -15 -40 6 -37 31 3 33 -1 16 -27 -16 -24 -16
-25 4 -31 38 -10 21 -63 -20 -63 -11 0 -18 -7 -18 -20 0 -15 7 -20 28 -20 57
1 93 60 67 110 -8 16 -15 40 -15 53 0 27 -17 47 -40 47 -9 0 -21 -5 -28 -12z"/>
<path d="M6132 3290 c-54 -53 -54 -127 -1 -180 81 -80 209 -22 209 95 0 71
-51 115 -134 115 -36 0 -50 -6 -74 -30z m122 -21 c28 -13 51 -59 42 -86 -18
-58 -94 -84 -129 -45 -68 75 -4 172 87 131z"/>
<path d="M5327 3303 c-16 -16 -3 -34 54 -73 48 -33 63 -39 70 -28 9 14 -18 44
-78 86 -34 24 -37 25 -46 15z"/>
<path d="M4592 3233 c-80 -43 -120 -79 -148 -136 -54 -106 -28 -246 59 -323
57 -49 98 -64 176 -64 115 0 213 66 264 179 33 71 30 170 -6 243 -23 48 -37
63 -84 89 -47 27 -69 33 -132 36 -68 3 -82 1 -129 -24z m224 -32 c44 -20 79
-71 104 -148 16 -53 2 -116 -42 -190 -37 -60 -109 -103 -189 -111 -94 -9 -189
59 -217 154 -21 72 -15 136 16 181 32 48 105 111 136 118 11 2 30 6 41 8 48
11 113 5 151 -12z"/>
<path d="M4700 3070 c-6 -11 -9 -24 -6 -29 12 -19 -20 -30 -59 -21 -25 6 -44
5 -49 0 -13 -13 0 -25 47 -40 20 -6 37 -12 37 -13 0 -1 -4 -18 -10 -36 -7 -24
-6 -39 1 -48 18 -21 26 -15 40 31 l13 45 48 -6 c40 -5 48 -3 48 10 0 19 -30
37 -60 37 -21 0 -22 3 -16 45 6 37 4 45 -8 45 -8 0 -20 -9 -26 -20z"/>
<path d="M1793 3212 c-17 -60 -3 -368 22 -474 22 -97 30 -99 77 -23 l34 55 48
-148 c68 -206 87 -211 94 -27 4 107 -6 241 -28 360 -5 28 -11 65 -14 83 -2 19
-7 36 -10 40 -9 8 -43 -26 -76 -76 l-29 -44 -15 37 c-9 21 -16 43 -16 51 0 7
-4 15 -9 18 -4 3 -17 41 -27 86 -20 85 -39 107 -51 62z m70 -245 c11 -33 26
-61 34 -64 19 -7 46 19 69 67 24 50 34 51 34 3 1 -21 5 -58 10 -83 5 -25 12
-101 15 -170 l5 -125 -28 82 c-16 46 -32 86 -35 90 -4 3 -7 19 -7 34 0 54 -34
48 -71 -11 -13 -22 -27 -40 -30 -40 -12 0 -18 30 -24 118 -3 48 -8 107 -12
132 -11 79 -6 113 9 60 5 -19 19 -61 31 -93z"/>
<path d="M3212 3138 c-17 -17 -15 -53 3 -68 8 -7 15 -26 15 -42 0 -41 41 -81
72 -69 34 12 36 60 3 91 -15 14 -25 34 -25 51 0 40 -43 62 -68 37z m38 -33 c0
-8 -4 -15 -10 -15 -5 0 -10 7 -10 15 0 8 5 15 10 15 6 0 10 -7 10 -15z m37
-76 c17 -17 5 -43 -13 -28 -15 12 -19 39 -6 39 4 0 13 -5 19 -11z"/>
<path d="M2808 2969 c-25 -14 -23 -49 2 -49 13 0 20 -7 20 -20 0 -11 6 -20 14
-20 21 0 38 -27 31 -48 -3 -11 -19 -25 -35 -32 -18 -8 -30 -20 -30 -31 0 -23
12 -24 50 -4 58 30 78 95 40 130 -11 10 -20 28 -20 40 0 40 -35 56 -72 34z"/>
<path d="M5172 2968 c-5 -7 -13 -23 -17 -36 -6 -20 -12 -23 -43 -20 -29 2 -37
-1 -40 -15 -3 -12 6 -21 28 -28 27 -10 31 -15 28 -43 -4 -43 27 -49 45 -8 10
25 15 28 35 21 13 -5 28 -7 33 -3 14 8 10 34 -6 39 -8 3 -22 7 -30 10 -12 3
-13 10 -5 31 17 44 -3 82 -28 52z"/>
<path d="M3954 2940 c-188 -49 -380 -164 -605 -362 -37 -32 -76 -58 -86 -58
-11 0 -69 11 -129 24 -157 35 -261 48 -404 47 -188 0 -324 -38 -435 -122 -55
-41 -125 -123 -125 -145 0 -28 23 -25 47 5 l24 31 32 -32 c18 -17 73 -62 122
-98 95 -70 386 -265 406 -272 8 -3 9 -15 4 -37 -9 -41 -11 -40 -177 35 -135
61 -153 66 -153 44 0 -18 50 -47 189 -107 60 -26 111 -53 113 -60 12 -30 33
-7 76 82 84 172 190 316 351 474 l75 75 148 -25 c126 -20 181 -24 363 -23 182
0 230 4 313 22 166 37 317 90 317 112 0 22 -32 22 -85 0 -31 -13 -57 -21 -59
-19 -1 2 -10 44 -20 93 -19 100 -21 106 -41 106 -23 0 -25 -14 -11 -68 8 -28
17 -73 21 -100 l6 -49 -40 -11 c-36 -9 -43 -8 -51 7 -12 23 -140 380 -140 391
0 5 10 10 23 12 14 2 22 10 22 22 0 27 -10 27 -91 6z m70 -242 c38 -106 71
-199 74 -206 3 -10 -3 -13 -24 -10 -28 3 -30 8 -91 198 -35 107 -63 198 -63
203 0 4 8 7 18 7 14 0 32 -40 86 -192z m-85 -23 c34 -107 59 -200 56 -205 -3
-6 -24 -10 -45 -10 -33 0 -40 4 -45 23 -2 12 -11 51 -19 87 -8 36 -29 103 -46
150 -17 47 -34 93 -37 102 -4 12 4 21 28 32 19 8 37 15 40 15 3 1 33 -87 68
-194z m-158 58 c35 -84 79 -226 79 -255 0 -15 -9 -18 -60 -18 -40 0 -62 4 -64
13 -39 141 -69 256 -73 272 -3 15 6 25 34 41 21 12 41 22 45 23 3 1 21 -34 39
-76z m-130 -106 c16 -53 31 -112 35 -132 6 -35 6 -35 -30 -35 -42 0 -47 8 -87
130 l-28 85 32 28 c17 15 36 26 41 24 5 -2 22 -47 37 -100z m-119 -69 c15 -45
26 -84 23 -86 -2 -2 -20 -1 -39 2 -31 6 -39 14 -62 61 l-25 55 28 25 c15 13
33 24 38 25 6 0 22 -37 37 -82z m-797 -54 c21 -25 88 -97 150 -160 104 -106
111 -115 98 -134 -8 -11 -19 -20 -24 -20 -16 0 -107 71 -213 166 -54 49 -124
109 -155 134 l-55 45 29 6 c17 4 53 7 81 8 50 1 53 -1 89 -45z m210 21 c6 -8
31 -47 58 -87 26 -40 54 -82 62 -93 12 -18 11 -23 -11 -49 l-25 -29 -56 54
c-30 30 -91 94 -136 143 l-82 89 90 -7 c61 -4 93 -11 100 -21z m465 -1 c14
-36 14 -37 -27 -29 -48 9 -50 11 -28 35 25 27 44 25 55 -6z m-863 -43 c26 -21
101 -88 165 -148 64 -60 139 -125 167 -144 54 -36 58 -45 39 -72 -12 -15 -20
-13 -93 22 -44 21 -117 65 -162 97 -88 64 -273 224 -273 236 0 10 71 47 92 48
9 0 38 -17 65 -39z m526 30 c28 -11 81 -96 73 -117 -9 -24 -36 -28 -52 -8 -20
26 -74 117 -74 127 0 10 24 9 53 -2z m135 -27 c22 -6 22 -8 6 -25 -22 -25 -28
-24 -48 6 -15 23 -15 25 1 25 10 0 28 -3 41 -6z m-838 -57 c145 -133 186 -168
253 -218 65 -49 198 -124 247 -141 11 -3 9 -13 -9 -41 -12 -20 -25 -37 -28
-37 -3 0 -104 65 -225 145 -204 135 -328 233 -328 259 0 9 49 55 60 56 3 0 16
-10 30 -23z"/>
<path d="M5464 2920 c-76 -18 -124 -81 -124 -165 0 -82 35 -123 124 -146 92
-23 181 29 205 118 20 72 -35 170 -107 191 -43 13 -52 13 -98 2z m137 -81 c33
-39 36 -76 13 -125 -22 -47 -65 -67 -126 -62 -88 9 -126 73 -92 157 21 53 58
73 128 67 42 -3 54 -9 77 -37z"/>
<path d="M5440 2782 c0 -13 12 -22 39 -30 54 -17 71 -15 71 6 0 13 -12 22 -39
30 -54 17 -71 15 -71 -6z"/>
<path d="M7945 2863 c-33 -8 -66 -16 -73 -19 -7 -2 -14 -4 -17 -4 -21 -3 -248
-86 -315 -116 l-85 -37 -67 37 c-135 74 -346 100 -471 57 -177 -61 -327 -233
-360 -413 l-12 -67 -92 -58 c-129 -81 -239 -171 -337 -274 -168 -176 -185
-299 -50 -354 40 -16 72 -19 179 -19 142 1 281 25 489 85 l109 31 66 -26 c234
-92 495 -28 650 159 51 62 87 135 109 225 l17 68 95 63 c207 135 386 291 455
394 76 115 65 202 -32 267 -35 22 -167 23 -258 1z m244 -52 c56 -40 48 -128
-18 -225 -82 -119 -405 -358 -750 -556 -436 -250 -830 -381 -1156 -384 -173
-2 -245 25 -245 89 0 97 261 362 474 481 26 14 49 25 50 23 2 -2 6 -28 7 -58
l4 -54 -57 -34 c-68 -40 -163 -125 -183 -164 -22 -42 -19 -86 8 -103 77 -50
307 -16 552 81 238 94 723 354 870 467 155 119 209 182 203 238 -7 71 -85 72
-290 5 l-98 -31 -30 29 c-16 16 -30 32 -30 35 0 16 297 139 380 157 161 35
263 37 309 4z m-927 -82 c138 -46 259 -146 315 -260 59 -120 61 -114 -69 -191
-255 -150 -474 -259 -668 -331 -140 -52 -128 -55 -178 43 -75 150 -89 298 -40
447 46 139 183 264 339 308 72 20 216 13 301 -16z m634 -124 c9 -22 -56 -97
-143 -166 -76 -60 -93 -69 -93 -46 0 6 -16 43 -34 82 -19 38 -34 70 -33 71 1
1 45 15 97 32 52 17 102 33 110 36 34 11 91 6 96 -9z m-273 -537 c-3 -13 -21
-56 -39 -96 -77 -170 -264 -282 -467 -282 -62 0 -147 18 -183 38 -18 10 -18
11 1 18 127 46 342 152 540 267 72 42 135 76 142 76 7 1 9 -8 6 -21z m-1043
-11 c0 -7 18 -47 39 -90 22 -42 37 -78 33 -81 -21 -12 -137 -28 -211 -30 -85
-1 -86 -1 -89 24 -4 32 43 81 142 151 65 46 86 53 86 26z"/>
<path d="M6170 2748 c-25 -13 -59 -41 -76 -64 -35 -47 -60 -144 -50 -197 17
-91 96 -147 206 -147 80 0 123 20 167 78 62 82 70 199 19 266 -58 77 -183 107
-266 64z m194 -58 c51 -36 72 -94 57 -157 -28 -108 -96 -161 -193 -150 -100
12 -144 64 -136 160 6 68 35 125 79 155 46 32 139 28 193 -8z"/>
<path d="M6239 2607 c-10 -22 -16 -24 -50 -20 -32 5 -39 3 -39 -11 0 -10 13
-21 30 -27 26 -9 28 -14 23 -40 -5 -24 -2 -29 15 -29 12 0 23 9 27 20 5 17 10
18 26 9 12 -6 27 -8 35 -5 21 8 17 32 -8 43 -16 7 -22 18 -22 43 -1 41 -22 50
-37 17z"/>
<path d="M5810 2725 c-17 -20 -9 -26 62 -54 56 -23 78 -22 78 3 0 13 -19 25
-84 51 -46 18 -41 18 -56 0z"/>
<path d="M5762 2639 c3 -21 11 -25 73 -35 39 -7 74 -8 79 -4 18 17 -4 38 -46
45 -24 3 -58 9 -76 12 -31 5 -33 4 -30 -18z"/>
<path d="M5147 2452 c-57 -57 -71 -88 -42 -94 17 -3 -56 -137 -232 -423 -58
-93 -109 -177 -114 -185 -59 -97 -69 -118 -67 -140 l3 -25 125 -2 c69 -2 332
0 585 5 l460 7 -2 29 c-1 16 -15 47 -30 69 -34 48 -26 37 -109 172 -38 61
-121 192 -186 293 -65 100 -118 187 -118 192 0 6 5 9 12 7 6 -1 13 5 15 14 3
10 -20 38 -60 72 -58 52 -66 56 -105 52 -23 -2 -44 1 -47 6 -12 18 -31 7 -88
-49z m361 -330 c185 -288 189 -297 166 -289 -10 4 -53 18 -94 32 -52 18 -106
28 -176 32 l-101 6 -7 135 c-3 74 -6 165 -6 202 l0 66 38 11 c20 6 39 11 42
12 3 0 65 -93 138 -207z m-280 189 l22 -1 0 -204 0 -203 -72 -7 c-113 -11
-268 -50 -304 -78 -26 -19 -19 8 15 60 49 74 145 233 210 350 48 85 55 92 79
88 15 -2 37 -5 50 -5z m300 -476 c116 -28 234 -102 268 -167 9 -17 14 -31 12
-33 -5 -4 -1042 -12 -1055 -8 -19 7 8 53 54 93 71 63 200 110 354 129 97 13
288 5 367 -14z"/>
<path d="M5250 1753 c-18 -27 -30 -41 -27 -32 3 9 1 22 -4 30 -12 19 -41 0
-53 -35 -13 -35 5 -56 30 -35 10 8 15 9 11 3 -4 -7 0 -18 9 -25 14 -11 18 -10
31 6 36 48 65 106 59 120 -9 25 -22 17 -56 -32z"/>
<path d="M5523 1770 c-17 -30 -33 -39 -33 -20 0 6 -8 10 -18 10 -17 0 -52 -55
-52 -80 0 -17 39 -11 49 8 9 15 10 14 11 -6 0 -39 31 -22 67 38 18 30 33 61
33 68 0 24 -39 12 -57 -18z"/>
<path d="M4971 1714 c-17 -31 -28 -61 -25 -65 10 -16 28 -9 51 19 18 21 22 23
23 10 0 -10 7 -18 15 -18 18 0 49 45 40 60 -10 16 -33 12 -45 -7 -9 -15 -10
-14 -4 7 10 40 10 44 -7 47 -12 3 -26 -13 -48 -53z"/>
<path d="M4902 1708 c-15 -23 -18 -36 -11 -45 14 -17 32 -8 53 27 32 54 -9 71
-42 18z"/>
<path d="M5316 1725 c-25 -26 -35 -50 -26 -64 11 -19 32 -9 52 27 15 25 16 32
4 41 -11 9 -18 8 -30 -4z"/>
<path d="M5556 1714 c-11 -28 -6 -44 13 -44 19 0 31 18 31 46 0 19 -36 18 -44
-2z"/>
<path d="M4743 2468 c-9 -11 -3 -35 29 -106 22 -51 46 -92 53 -92 14 0 135
149 135 167 0 12 -58 27 -151 38 -41 5 -58 3 -66 -7z m121 -47 l29 -6 -28 -33
c-23 -28 -30 -31 -41 -20 -7 7 -16 25 -19 41 -8 29 -1 31 59 18z"/>
<path d="M4486 2318 c-5 -17 -36 -278 -36 -300 0 -11 8 -18 19 -18 15 0 21 10
26 40 4 22 11 40 15 40 28 0 59 -22 68 -49 11 -30 35 -41 47 -21 4 6 -4 34
-17 63 -21 44 -45 116 -77 227 -8 27 -39 40 -45 18z m44 -179 c0 -10 -4 -19
-10 -19 -5 0 -10 12 -10 26 0 14 4 23 10 19 6 -3 10 -15 10 -26z"/>
<path d="M5865 2319 c-33 -19 -45 -41 -45 -80 0 -88 94 -125 151 -61 35 39 38
81 7 117 -26 29 -82 41 -113 24z"/>
<path d="M3332 2248 c-40 -11 -72 -59 -72 -110 0 -68 75 -124 139 -103 32 10
70 56 77 93 16 83 -58 145 -144 120z m87 -59 c18 -17 22 -28 17 -53 -7 -35
-39 -66 -68 -66 -29 0 -68 45 -68 79 0 56 75 81 119 40z"/>
<path d="M4286 2128 c-22 -30 -20 -61 4 -83 23 -21 26 -35 7 -35 -19 0 -36
-20 -30 -36 8 -21 50 -17 73 6 27 27 25 56 -4 85 -24 24 -24 25 -5 35 10 6 19
20 19 30 0 28 -44 26 -64 -2z"/>
<path d="M4139 2115 c-47 -26 -67 -135 -31 -168 52 -47 122 14 122 107 0 69
-34 92 -91 61z m47 -78 c-7 -36 -23 -57 -42 -57 -21 0 -17 38 7 71 25 35 43
28 35 -14z"/>
<path d="M3948 2073 c-59 -68 -46 -153 23 -153 30 0 69 26 69 45 0 23 -20 28
-47 10 -20 -13 -27 -14 -33 -4 -13 19 5 54 29 57 27 4 37 27 21 47 -17 20 -43
19 -62 -2z"/>
<path d="M3513 1904 c-8 -21 8 -30 88 -49 49 -12 68 -22 72 -36 7 -25 48 -25
78 1 l24 20 -30 25 c-17 15 -38 24 -49 21 -10 -3 -52 4 -94 15 -90 23 -81 22
-89 3z"/>
<path d="M3466 1773 c-41 -83 -137 -333 -131 -343 16 -25 35 -3 65 71 l33 81
44 -7 c35 -5 44 -3 50 10 7 20 -12 35 -44 35 -13 0 -23 6 -23 14 0 26 52 136
65 136 6 0 45 -11 86 -25 76 -26 99 -26 99 -1 0 14 -164 76 -202 76 -11 0 -27
-18 -42 -47z"/>
<path d="M3063 1786 c-44 -20 -66 -67 -61 -126 7 -71 52 -110 127 -110 51 0
106 48 116 101 8 45 -14 101 -49 124 -35 23 -95 28 -133 11z"/>
<path d="M6645 1561 c-44 -4 -61 -10 -63 -22 -4 -23 15 -28 91 -22 55 5 67 9
67 23 0 14 -26 36 -33 28 -1 -1 -29 -4 -62 -7z"/>
<path d="M5242 1527 c-15 -18 -52 -106 -52 -124 0 -11 7 -14 25 -11 l25 5 0
-166 c0 -125 3 -172 13 -186 31 -41 38 -8 36 168 -1 167 0 172 20 175 27 4 26
10 -5 76 -31 66 -47 82 -62 63z"/>
<path d="M4767 1498 c-52 -69 -57 -106 -15 -94 20 5 21 2 14 -182 -7 -189 -3
-220 28 -209 14 5 16 29 17 159 0 84 4 171 8 193 5 22 9 36 10 31 0 -5 7 -3
15 3 12 10 11 20 -9 69 -13 31 -27 58 -33 60 -6 2 -21 -12 -35 -30z"/>
<path d="M5662 1517 c-13 -16 -42 -106 -42 -129 0 -11 7 -18 19 -18 17 0 20
-11 25 -92 15 -221 16 -228 38 -228 19 0 20 5 13 165 -8 164 -8 165 14 165 27
0 27 8 -6 80 -29 62 -45 77 -61 57z"/>
<path d="M3650 1503 c0 -12 10 -23 28 -29 25 -10 23 -10 -18 -10 -33 1 -45 -3
-45 -14 0 -16 147 -65 171 -56 23 9 16 26 -18 41 -19 8 -26 14 -15 15 10 0 17
8 17 20 0 22 -29 37 -87 47 -28 5 -33 3 -33 -14z"/>
<path d="M3909 1463 c-18 -51 -33 -88 -46 -112 -6 -14 -10 -28 -7 -33 12 -18
34 -5 74 42 23 28 50 50 61 50 23 0 23 -12 4 -65 -31 -86 -15 -96 48 -30 41
42 77 58 77 35 0 -6 -7 -27 -15 -46 -16 -38 -13 -54 10 -54 18 0 25 12 41 72
17 67 6 92 -39 86 -18 -3 -40 -8 -49 -13 -14 -5 -18 -2 -18 12 0 29 -35 56
-64 51 -18 -4 -26 0 -29 14 -8 27 -36 22 -48 -9z"/>
<path d="M4215 1480 c-10 -17 4 -29 43 -36 62 -11 87 -44 33 -44 -34 0 -77
-37 -97 -85 -26 -62 13 -97 82 -75 32 11 38 10 58 -9 30 -28 86 -29 86 -1 0
14 -7 20 -24 20 -36 0 -49 23 -42 73 5 34 3 47 -10 58 -15 13 -15 14 6 19 38
9 48 36 24 61 -16 16 -37 22 -87 24 -37 2 -69 0 -72 -5z m92 -136 c7 -19 -34
-64 -59 -64 -25 0 -23 22 7 54 27 30 43 33 52 10z"/>
<path d="M6749 1476 c-8 -8 -279 -37 -404 -44 -121 -7 -130 -8 -130 -27 0 -19
6 -20 105 -17 171 4 449 38 467 56 16 16 -21 47 -38 32z"/>
<path d="M5983 1370 c-28 -12 -63 -67 -63 -100 0 -38 37 -90 75 -106 32 -13
38 -13 75 6 49 25 72 59 72 104 0 78 -81 127 -159 96z m98 -50 c20 -11 26 -54
9 -65 -16 -10 -60 23 -60 44 0 32 17 39 51 21z m-6 -110 c-3 -5 -13 -10 -21
-10 -8 0 -12 5 -9 10 3 6 13 10 21 10 8 0 12 -4 9 -10z"/>
<path d="M6425 1331 c-17 -3 -30 -13 -30 -21 0 -12 15 -15 66 -16 73 -2 95 6
86 30 -7 17 -62 20 -122 7z"/>
</g>
</svg>
