<?xml version="1.0" encoding="UTF-8"?><svg id="a" xmlns="http://www.w3.org/2000/svg" viewBox="0 0 495.27 484.64"><defs><style>.b{fill:#fff;}.c{fill:#1d1d1b;}</style></defs><rect class="c" y="111.81" width="70.16" height="71.23"/><rect class="c" y="216.55" width="70.16" height="261.78"/><path class="c" d="M331.43,111.81V478.33h-69.65v-10.98c-24.43,11.51-45.56,17.28-63.35,17.28-38.06,0-64.59-11-79.6-33-15.02-22-22.51-56.81-22.51-104.46s8.99-82.37,26.97-104.21c17.95-21.8,45.08-32.7,81.42-32.7,11.15,0,26.69,1.73,46.6,5.24l9.95,2.08V111.81h70.16Z"/><path class="b" d="M253.92,415.51l7.35-1.59v-137.69c-19.2-3.47-36.33-5.23-51.32-5.23-28.28,0-42.42,25.12-42.42,75.39,0,27.23,3.15,46.61,9.43,58.13,6.26,11.53,16.67,17.28,31.16,17.28s29.77-2.1,45.8-6.29Z"/><rect class="c" x="370.16" y="216.55" width="70.17" height="261.78"/><polygon class="c" points="371.12 111.9 416.28 111.9 416.28 138.25 442.61 138.25 442.61 183.41 371.12 183.41 371.12 111.9"/><g><rect class="c" x="429.44" y="98.75" width="26.34" height="26.33"/><rect class="c" x="455.78" y="59.26" width="39.49" height="39.5"/><rect class="c" x="396.55" width="59.23" height="59.26"/></g></svg>